<svg version="1" xmlns="http://www.w3.org/2000/svg" width="1365.333" height="1365.333" viewBox="0 0 1024.000000 1024.000000"><path d="M477.5 1.6C337.6 14.3 215.3 102.7 159.8 231.1 135 288.6 124.7 349.7 128.9 414c5.2 77.9 26.5 128.2 102.7 242.5 22.1 33.1 49.8 73 131.5 189.7 31.7 45.3 69.5 99.4 83.9 120.3 14.5 20.9 28.5 40.3 31.3 43.2 17.7 18.3 47.3 18.9 65.9 1.5 2.9-2.7 14.9-18.9 28.5-38.7 13-18.7 51.1-73.3 84.7-121.3 131.3-187.5 157.5-226.4 184.2-272.8 40.6-70.8 54.4-120.1 54.4-193.7-.1-139.1-74.3-266.5-195.5-335.2-66.6-37.8-146.1-54.9-223-47.9zM476 176.9c0 22 .3 40.2.8 40.4.4.2 9.4.2 20-.1l19.2-.5V137h50v82l2.3.4c1.2.3 5.1.8 8.7 1.1 40.2 3.9 72.7 17.1 90.3 36.6 13.7 15.2 19.9 33.1 19.9 58.4.1 21.5-5.1 37.7-16.6 51.7-5.2 6.3-15.7 14.8-22.6 18.3-4 2.1-4.3 1.8 7.5 5.5 23.2 7.1 41.7 21.2 50.9 39 7.1 13.8 9.7 26.3 9.7 46.5-.1 54.4-22.9 88.6-70.1 105.3-17.7 6.2-44.6 11.3-69 13l-10.5.7-.3 41.2-.2 41.3h-50V597.3l-19-.7c-10.5-.3-19.5-.4-20-.1-.6.4-1 16.6-1 41.1V678h-50v-83h-50c-39.4 0-50-.3-49.9-1.3 0-.6 2.1-13.8 4.7-29.2l4.8-28 20.9-.5c23-.6 24.9-1.1 29.8-7 1.5-1.7 3.1-4.7 3.7-6.8.6-2.4 1-41.6 1-115.3 0-125.9.4-118.5-7.5-126.4-7-7-11.7-8-36.7-7.9l-20.8.1v-54l43.3.3c23.7.2 46.2.3 50 .2l6.7-.2v-40.3c0-22.2.3-40.7.7-41 .3-.4 11.6-.7 25-.7H476v39.9z"/><path d="M477.5 277.2c-.3.7-.4 23.1-.3 49.8l.3 48.5 17 .3c66.3 1.2 99.3-15.3 99.5-49.8 0-11.9-4.4-22.6-12.6-30.7-9.7-9.4-25-15.2-47.4-17.8-16.1-1.9-55.8-2.1-56.5-.3zM477.5 427.2c-.3.7-.4 25.4-.3 54.8l.3 53.5h28c29.3-.1 42.6-1.1 58-4.7 36.1-8.3 53.4-24.4 53.5-49.8 0-31.1-24.7-49-74.4-53.9-15.9-1.6-64.5-1.5-65.1.1z"/></svg>