<?xml version="1.0" standalone="no"?>
<!DOCTYPE svg PUBLIC "-//W3C//DTD SVG 20010904//EN"
 "http://www.w3.org/TR/2001/REC-SVG-20010904/DTD/svg10.dtd">
<svg version="1.0" xmlns="http://www.w3.org/2000/svg"
 width="1024.000000pt" height="1024.000000pt" viewBox="0 0 1024.000000 1024.000000"
 preserveAspectRatio="xMidYMid meet">
<metadata>
Created by potrace 1.14, written by Peter Selinger 2001-2017
</metadata>
<g transform="translate(0.000000,1024.000000) scale(0.100000,-0.100000)"
fill="#000000" stroke="none">
<path d="M4879 10236 c-2 -2 -40 -7 -84 -10 -44 -3 -98 -9 -120 -12 -22 -3
-53 -7 -70 -9 -42 -5 -96 -14 -125 -20 -14 -3 -41 -8 -60 -11 -41 -8 -66 -13
-100 -21 -14 -3 -33 -6 -42 -7 -10 0 -18 -4 -18 -8 0 -4 -3 -7 -7 -6 -31 8
-398 -109 -538 -171 -234 -104 -347 -162 -505 -259 -76 -47 -261 -171 -270
-181 -3 -3 -34 -28 -70 -55 -36 -27 -74 -58 -85 -68 -11 -10 -38 -33 -60 -51
-55 -45 -341 -332 -390 -392 -22 -27 -48 -57 -57 -67 -10 -10 -18 -21 -18 -24
0 -3 -6 -12 -12 -19 -51 -57 -94 -115 -186 -253 -45 -68 -82 -125 -82 -127 0
-2 -23 -43 -50 -90 -44 -76 -118 -225 -175 -349 -63 -139 -179 -488 -191 -575
-2 -18 -9 -42 -14 -52 -6 -10 -9 -22 -8 -26 1 -4 -4 -33 -10 -63 -15 -65 -17
-81 -27 -140 -3 -25 -9 -58 -11 -73 -3 -16 -7 -52 -10 -80 -3 -29 -7 -63 -9
-77 -2 -14 -5 -63 -9 -110 -3 -47 -8 -130 -12 -185 -12 -167 -8 -355 10 -483
15 -97 18 -121 28 -167 18 -90 36 -169 58 -255 6 -25 13 -52 15 -60 15 -65 70
-243 100 -325 21 -55 39 -110 42 -122 3 -13 10 -23 16 -23 6 0 8 -3 5 -6 -4
-3 2 -24 12 -47 10 -23 34 -82 55 -132 42 -103 36 -89 114 -265 32 -74 78
-175 102 -225 23 -49 43 -92 44 -95 0 -3 9 -21 20 -40 11 -19 20 -37 20 -40 3
-15 61 -126 68 -128 4 -2 5 -8 1 -13 -3 -5 0 -9 7 -9 7 0 9 -3 6 -7 -4 -3 -3
-11 3 -17 5 -7 40 -73 79 -148 74 -145 93 -180 101 -188 3 -3 17 -30 33 -60
15 -30 43 -82 63 -115 19 -33 40 -72 46 -87 7 -16 16 -28 20 -28 4 0 8 -5 8
-11 0 -5 48 -92 107 -192 58 -100 114 -195 122 -212 9 -16 19 -32 22 -35 3 -3
27 -41 53 -85 60 -102 174 -286 278 -448 14 -23 36 -59 47 -79 11 -21 63 -103
116 -183 52 -81 95 -148 95 -150 0 -13 35 -43 43 -38 6 3 7 2 4 -3 -3 -6 17
-42 44 -82 27 -40 49 -77 49 -82 0 -6 3 -10 8 -10 4 0 12 -8 17 -19 12 -22
167 -254 175 -261 4 -3 55 -77 115 -165 60 -88 111 -162 114 -165 13 -12 51
-70 51 -79 0 -5 4 -11 8 -13 6 -3 82 -105 132 -177 20 -30 217 -303 227 -316
5 -5 20 -26 33 -45 14 -19 30 -42 37 -50 59 -75 203 -274 203 -280 0 -4 7 -10
15 -14 8 -3 15 -12 15 -20 0 -8 4 -16 8 -18 5 -1 37 -41 71 -88 124 -169 218
-230 364 -235 62 -3 97 1 142 17 56 19 116 53 123 70 2 4 8 8 14 8 13 0 11 -1
108 126 41 54 83 108 92 118 10 11 30 38 45 60 15 23 32 46 37 51 6 6 27 33
45 60 19 28 38 52 41 55 3 3 22 28 41 55 18 28 36 52 39 55 7 7 130 175 161
220 13 19 27 40 31 45 28 35 60 79 105 145 29 41 60 84 69 95 8 11 47 65 84
120 38 55 73 105 78 110 5 6 17 24 28 40 10 17 35 53 56 81 21 28 38 54 38 58
0 4 7 14 15 23 9 8 41 54 72 102 31 47 59 88 62 91 3 3 58 84 121 180 63 96
118 179 123 185 17 22 139 215 183 290 26 43 52 85 58 91 6 7 25 35 41 64 17
28 53 86 82 130 28 43 49 81 45 84 -3 3 -1 6 5 6 8 0 37 49 34 58 -1 1 3 8 9
15 22 24 99 147 105 167 3 11 11 20 16 20 5 0 9 4 9 9 0 4 42 80 93 167 52 88
122 211 157 274 35 63 68 117 72 118 4 2 6 8 2 13 -3 5 0 9 5 9 6 0 11 9 11
19 0 11 4 21 9 23 5 1 25 37 46 78 21 41 40 77 44 80 3 3 49 91 101 195 52
105 99 193 103 196 5 3 8 9 8 13 -1 3 21 52 49 108 27 56 50 107 50 113 0 6 6
17 13 24 6 6 12 15 12 19 1 4 11 27 23 51 12 25 22 51 22 58 0 7 5 13 10 13 6
0 10 6 10 14 0 13 59 151 80 188 6 10 10 22 10 27 0 6 19 49 42 98 23 48 43
93 44 98 1 6 13 35 26 65 14 30 28 64 33 75 13 35 85 240 87 245 0 3 2 10 4
15 13 40 67 259 84 345 12 58 24 114 26 125 51 249 66 478 50 730 -14 211 -19
273 -33 360 -3 22 -7 51 -9 65 -6 52 -30 176 -58 305 -10 44 -76 275 -86 300
-5 11 -13 34 -18 50 -18 51 -60 162 -75 197 -8 18 -23 51 -32 73 -23 51 -113
235 -125 255 -5 8 -35 60 -66 115 -31 55 -61 102 -66 103 -4 2 -8 8 -8 13 0
13 -81 133 -92 137 -4 2 -8 8 -8 14 0 6 -10 22 -22 37 -13 15 -32 40 -43 55
-96 135 -311 369 -465 506 -34 30 -77 69 -95 85 -19 17 -47 40 -62 52 -15 12
-41 33 -58 47 -16 14 -33 26 -37 26 -4 0 -13 6 -20 13 -7 7 -29 24 -48 37 -19
13 -39 28 -45 33 -17 14 -178 118 -220 142 -22 12 -58 32 -80 45 -118 67 -187
100 -197 94 -6 -4 -8 -3 -5 3 5 8 -33 35 -54 37 -3 1 -25 11 -50 22 -63 31
-116 54 -124 54 -3 0 -25 8 -48 19 -23 10 -96 36 -162 56 -66 21 -127 40 -135
43 -8 3 -18 6 -22 7 -5 2 -10 4 -13 5 -3 1 -8 3 -12 4 -5 1 -24 6 -43 11 -19
5 -42 10 -50 11 -8 2 -35 8 -60 14 -25 5 -56 12 -70 15 -14 3 -45 9 -70 15
-25 5 -67 12 -95 16 -27 4 -52 8 -55 9 -3 1 -39 5 -80 9 -41 5 -84 11 -95 13
-23 6 -590 14 -596 9z m1181 -870 c0 -2 -8 -10 -17 -17 -16 -13 -17 -12 -4 4
13 16 21 21 21 13z m-60 -80 c0 -2 -8 -10 -17 -17 -16 -13 -17 -12 -4 4 13 16
21 21 21 13z"/>
</g>
</svg>
