<?xml version="1.0" encoding="utf-8"?>
<!-- Generator: Adobe Illustrator 25.2.3, SVG Export Plug-In . SVG Version: 6.00 Build 0)  -->
<svg version="1.1" id="Layer_1" focusable="false" xmlns="http://www.w3.org/2000/svg" xmlns:xlink="http://www.w3.org/1999/xlink"
	 x="0px" y="0px" viewBox="0 0 384 512" style="enable-background:new 0 0 384 512;" xml:space="preserve">
<style type="text/css">
	.st0{fill:#FFFFFF;}
	.st1{fill:#FF5B42;}
</style>
<g transform="translate(-83, 40) rotate(-14 0 0) scale(14 14)">
	<path class="st0" d="M23.2,14c0.3-2.1-1.3-3.2-3.5-4l0.7-2.8l-1.7-0.4L18,9.5c-0.5-0.1-0.9-0.2-1.4-0.3l0.7-2.8L15.6,6l-0.7,2.8
		c-0.4-0.1-0.7-0.2-1.1-0.3l0,0L11.4,8l-0.5,1.8c0,0,1.3,0.3,1.3,0.3c0.7,0.2,0.8,0.6,0.8,1l-0.8,3.2c0,0,0.1,0,0.2,0.1l-0.2,0
		l-1.1,4.5c-0.1,0.2-0.3,0.5-0.8,0.4c0,0-1.3-0.3-1.3-0.3l-0.9,2l2.2,0.6c0.4,0.1,0.8,0.2,1.2,0.3l-0.7,2.9l1.7,0.4l0.7-2.8
		c0.5,0.1,0.9,0.2,1.4,0.4L14,25.5l1.7,0.4l0.7-2.9c2.9,0.6,5.2,0.3,6.1-2.3c0.8-2.1,0-3.4-1.6-4.2C22.1,16.3,23,15.6,23.2,14
		L23.2,14z M19.2,19.6c-0.5,2.1-4.1,1-5.3,0.7l0.9-3.8C16,16.7,19.8,17.3,19.2,19.6z M19.8,14c-0.5,2-3.5,1-4.5,0.7l0.9-3.4
		C17.1,11.5,20.3,12,19.8,14L19.8,14z"/>
</g>
<g>
	<path class="st1" d="M185.5,276.4c13.2,0,24-5,32.5-14.8c8.5-9.9,12.7-25.4,12.7-46.6c0-27.6-6-49.2-18-64.8
		c-8.8-11.5-20.2-17.2-34.1-17.2c-12.8,0-23.6,5.1-32.2,15.4c-8.7,10.2-13,26-13,47.1c0,27.4,5.9,48.7,17.7,63.7
		C160.2,270.7,171.6,276.4,185.5,276.4z"/>
	<path class="st1" d="M97.6,349.6c-3.7-4.2-5.6-9.1-5.6-14.5c0-6.1,2.5-13.2,7.4-21.4c5-8.2,16.4-19.8,34.3-34.8
		c-14.6-7.1-25.8-17.1-33.6-29.9c-7.8-12.8-11.7-26.9-11.7-42.4c0-23.7,8.9-44,26.7-61.1c17.8-17,40.7-25.6,68.5-25.6
		c22,0,41.2,5.2,57.6,15.5c14.4-14.1,25.1-26.1,32-35.9c9.4-13.4,14.2-25.7,14.2-36.8c0-8.5-2.6-15.4-7.8-20.9
		c-5.2-5.4-11.4-8.2-18.6-8.2c-6.6,0-12.5,1.9-17.7,5.8c-5.2,3.9-9.1,9.5-11.6,16.9H228c1.7-12.2,5.9-21.5,12.7-28
		c6.8-6.5,15.3-9.8,25.5-9.8c2.7,0,5.4,0.2,7.9,0.7c-22-11-46.5-17.7-72.5-19.1c0,0,0,0,0,0c-3.1-0.2-6.3-0.2-9.4-0.2h0c0,0,0,0,0,0
		C92.6,0,11.7,79.3,8.9,178.1c-0.2,1.9-0.4,3.7-0.5,5.6c-0.9,12.8,1.3,27.8,5.9,44.2c2.4,9.8,5.7,19.2,9.6,28.3
		c16.2,41.4,43,88.4,70.5,131.4c4.3-4.6,11.7-12.4,22.4-23.4C107.7,358.7,101.3,353.9,97.6,349.6z"/>
	<path class="st1" d="M275,379c-9-3.8-26.9-6-53.7-6.7c-39.1-1-69.2-3.1-90.3-6.1c-8.2,8.8-14.4,17-18.6,24.6
		c-3,5.5-4.9,10.6-5.8,15.5c27,40.9,53.3,76.5,69.4,97.7c8.1,10.6,24,10.6,32.1,0c18.1-23.7,48.9-65.4,79.2-112.6
		C285.6,385.9,281.5,381.8,275,379z"/>
	<path class="st1" d="M375.1,174c-2.9-58.5-33.3-109.9-78.6-141.3c5.1,6.2,7.7,13.2,7.7,21.1c0,6.8-1.6,13.6-4.7,20.3
		c-4.9,10.6-12.8,21.9-23.7,33.8c-16,17.5-26.1,28.2-30.3,32.1l0.2,0.3H280c7.1,0,12.1-0.2,14.9-0.8c2.8-0.5,5.4-1.6,7.7-3.2
		c2.3-1.6,4.3-3.9,6-6.8h3.6l-11.8,33.8h-36.2c8.1,12,12.2,26.9,12.2,44.7c0,22.4-8.5,41.4-25.5,57.3c-17,15.9-39.8,23.8-68.5,23.8
		c-11.8,0-23.9-1.8-36.2-5.3c-7.7,6.6-12.8,12.3-15.5,17.2c-2.8,4.9-4.1,9.1-4.1,12.5c0,2.9,1.4,5.8,4.3,8.5c2.9,2.8,8.5,4.7,16.9,6
		c4.8,0.8,17,1.5,36.5,2c35.9,1,59.1,2.4,69.7,4.1c16.1,2.3,29.1,8.3,38.7,18c4.3,4.4,7.7,9.2,10,14.5c21-34.4,40.6-70.3,54.2-103.5
		c7.3-15,12.5-31.1,15.5-48c2.4-11.3,3.6-21.9,3.2-31.4C375.6,180.4,375.4,177.2,375.1,174z"/>
	<path class="st0" d="M254.1,334.1c-10.6-1.7-33.8-3.1-69.7-4.1c-19.5-0.6-31.7-1.3-36.5-2c-8.4-1.2-13.9-3.2-16.9-6
		c-2.9-2.8-4.3-5.6-4.3-8.5c0-3.4,1.3-7.6,4.1-12.5c2.7-4.9,7.9-10.6,15.5-17.2c12.3,3.5,24.4,5.3,36.2,5.3
		c28.7,0,51.5-7.9,68.5-23.8c17-15.9,25.5-34.9,25.5-57.3c0-17.8-4.1-32.7-12.2-44.7h36.2l11.8-33.8h-3.6c-1.7,3-3.7,5.2-6,6.8
		c-2.3,1.6-4.9,2.7-7.7,3.2c-2.9,0.6-7.8,0.8-14.9,0.8h-34.4l-0.2-0.3c4.2-3.9,14.3-14.6,30.3-32.1c10.9-11.9,18.8-23.2,23.7-33.8
		c3.1-6.8,4.7-13.6,4.7-20.3c0-7.9-2.6-14.9-7.7-21.1c-7.2-5-14.7-9.4-22.6-13.4c-2.5-0.4-5.1-0.7-7.9-0.7
		c-10.2,0-18.7,3.3-25.5,9.8c-6.8,6.5-11,15.9-12.7,28h3.6c2.5-7.4,6.3-13.1,11.6-16.9c5.2-3.9,11.1-5.8,17.7-5.8
		c7.2,0,13.4,2.8,18.6,8.2c5.2,5.5,7.8,12.4,7.8,20.9c0,11.1-4.7,23.4-14.2,36.8c-6.9,9.9-17.6,21.9-32,35.9
		c-16.4-10.4-35.5-15.5-57.6-15.5c-27.8,0-50.7,8.5-68.5,25.6c-17.9,17.1-26.7,37.4-26.7,61.1c0,15.5,3.9,29.6,11.7,42.4
		c7.8,12.8,19,22.8,33.6,29.9c-17.9,15-29.3,26.6-34.3,34.8c-5,8.2-7.4,15.3-7.4,21.4c0,5.4,1.9,10.2,5.6,14.5
		c3.7,4.2,10.1,9.1,19.2,14.5c-10.6,11-18.1,18.8-22.4,23.4c4.1,6.4,8.2,12.7,12.2,18.8c0.8-4.8,2.8-10,5.8-15.5
		c4.2-7.6,10.4-15.8,18.6-24.6c21,3,51.1,5,90.3,6.1c26.8,0.7,44.7,2.9,53.7,6.7c6.5,2.8,10.6,7,12.3,12.5
		c5.2-8.1,10.4-16.4,15.6-24.8c-2.4-5.3-5.7-10.1-10-14.5C283.2,342.4,270.2,336.4,254.1,334.1z M133.5,195.5
		c0-21.2,4.4-36.9,13-47.1c8.7-10.2,19.4-15.4,32.2-15.4c13.9,0,25.2,5.7,34.1,17.2c12,15.6,18,37.2,18,64.8
		c0,21.2-4.2,36.8-12.7,46.6c-8.5,9.9-19.3,14.8-32.5,14.8c-13.9,0-25.3-5.7-34.3-17.2C139.4,244.2,133.5,222.9,133.5,195.5z"/>
</g>
</svg>
