<svg id="Layer_1" data-name="Layer 1" xmlns="http://www.w3.org/2000/svg" viewBox="0 0 814.758 814.758"><defs><style>.cls-1{fill:#4DB748;}.cls-2{fill:#fff;}</style></defs><title>9-bitcoin-cash-circle</title><circle class="cls-1" cx="407.379" cy="407.379" r="407.379"/><path class="cls-2" d="M598.45,424.3l-.227-.421-.038-.07c-.138-.424-.24-.867-.4-1.326l-.019-.035-.019-.035-.019-.035-.019-.035-.019-.035-.019-.035-.038-.07a83.225,83.225,0,0,0-27.21-40.712l-.019-.035c-.383-.292-.785-.618-1.169-.91l-.529-.394-.383-.292-.165-.138-.364-.257-.165-.138-.364-.257-.165-.138-.383-.292-.2-.119-.383-.292-.2-.119-.418-.273-.2-.119-.243-.367-.219-.154-.418-.273-.219-.154-.418-.273-.219-.154-.418-.273-.219-.154-.437-.308-.219-.154-.472-.289-.219-.154-.472-.289-.219-.154-.472-.289-.219-.154-.472-.289-.254-.135-.472-.289-.254-.135-.508-.27-.254-.135-.526-.305-.254-.135-.526-.305-.254-.135-.526-.305-.273-.17-.526-.305-.273-.17-.561-.286-.273-.17-.561-.286-.381-.2-.019-.035c-.273-.17-.561-.286-.834-.456a116.183,116.183,0,0,0-37.2-11.753,104.042,104.042,0,0,0,9.966-12.516l.478-.71.035-.019.221-.346.289-.472.154-.219.289-.472.154-.219.289-.472.154-.219.289-.472.154-.219.289-.472.154-.219.254-.453.154-.219.254-.453.119-.2.254-.453.119-.2.254-.453.119-.2.219-.435.119-.2.219-.435.119-.2.219-.435.119-.2.238-.4.119-.2.238-.4.119-.2.2-.381.119-.2.2-.381.084-.181.2-.381.084-.181.2-.381.084-.181.2-.381.084-.181.167-.362.084-.181.167-.362.084-.181.167-.362.084-.181.184-.416.251-.543c.184-.416.332-.812.516-1.228l.035-.019a73.912,73.912,0,0,0,3.756-43.393l-.019-.035-.038-.071-.019-.035-.019-.035-.019-.035-.019-.035-.019-.035-.019-.035c-.084-.408-.167-.815-.286-1.2l0-.089-.019-.035-.019-.035-.019-.035.019.035-.17-.316c-.124-.567-.248-1.134-.426-1.717-.124-.567-.3-1.15-.461-1.7l-.208-.386-.038-.07L536,277.984l-.019-.035-.019-.035-.019-.035-.019-.035-.019-.035-.019-.035-.019-.035a73.936,73.936,0,0,0-24.2-36.219l-.019-.035c-.329-.275-.694-.532-1.023-.807l-.456-.343-.364-.257-.165-.138-.31-.24-.165-.138-.31-.24-.165-.138-.346-.221-.165-.138-.364-.257-.165-.138-.364-.257-.165-.138-.364-.257-.2-.119-.364-.257-.2-.119-.364-.257-.2-.119-.4-.238-.2-.119-.4-.238-.2-.119-.4-.238-.2-.119-.4-.238-.2-.119-.418-.273-.2-.119-.418-.273-.2-.119-.453-.254-.2-.119-.453-.254-.219-.154-.453-.254-.219-.154-.453-.254-.219-.154-.472-.289-.254-.135-.472-.289-.254-.135-.507-.27-.254-.135-.507-.27-.362-.167-.019-.035-.761-.405c-22.247-11.562-50.51-15.043-78.947-7.748l-7.4,1.9-18.71-72.853-43.355,11.115,18.648,72.57-34.684,8.892-18.659-72.338L268.8,183.62l18.648,72.57L198.034,279.2l11.9,46.238,36.028-9.254a22.3,22.3,0,0,1,27.162,16.068h0l50,194.563a14.9,14.9,0,0,1-10.706,18.12l-31.569,8.121,1.855,54.994,89.31-22.951,18.894,72.437,43.336-11.151-18.667-72.605,34.684-8.892,18.667,72.605,43.336-11.151-18.729-72.888c7.343-1.916,13.66-3.55,18.03-4.681,32.047-8.242,57.961-27.035,73.643-50.458l.529-.783.035-.019.257-.364.34-.545.17-.273.34-.545.17-.273.305-.526.17-.273.305-.526.135-.254.3-.526.135-.254.305-.526.135-.254.27-.507.135-.254.27-.507.135-.254.289-.472.135-.254.289-.472.135-.254.254-.453.135-.254.254-.453.135-.254.254-.453.1-.235.254-.453.1-.235.219-.435.119-.2.219-.435.119-.2.219-.435.12-.2.219-.435.119-.2.219-.435.119-.2L593.9,483l.119-.2.184-.416.119-.2.184-.416.084-.181.2-.47.267-.6c.2-.47.419-.9.583-1.355l.016-.054a83.307,83.307,0,0,0,4.234-48.811l-.019-.035-.019-.035-.019-.035-.019-.035-.019-.035-.019-.035-.019-.035-.019-.035q-.154-.664-.308-1.328l0-.089-.019-.035-.019-.035-.019-.035-.019-.035-.019-.035-.019-.035-.019-.035-.019-.035-.019-.035-.019-.035-.019-.035-.019-.035-.019-.035-.076-.14c-.162-.637-.289-1.293-.486-1.911C598.582,425.723,598.49,425.048,598.45,424.3ZM343.707,294.136c7.4-1.9,37.98-9.58,48.066-12.2,16.033-4.1,31.827-2.511,44.168,3.429l.416.184h0l.181.084.254.135.127.068.254.135.127.068.254.135.127.068.254.135.127.068.254.135.127.068.254.135.127.068.254.135.127.068.254.135.127.068.254.135.127.068.219.154.127.068.219.154.127.068.219.154.127.068.2.119.127.068.2.119.127.068.2.119.127.068.2.119.127.068.2.119.092.086.2.119.073.051.2.119.073.051.2.119.073.051.2.119.073.051.165.138.073.051.2.119.273.17c.2.119.383.292.583.41h0a37.39,37.39,0,0,1,13.252,18.985h0l.057.1c.059.194.138.424.2.618l.019.035.113.211c.081.319.178.583.259.9a5.41,5.41,0,0,1,.173.993l.113.211.019.035a2.982,2.982,0,0,0,.162.637l.057.105h0a37.513,37.513,0,0,1-2.463,23.007h0l-.284.651-.151.308-.119.2-.032.108-.084.181-.032.108-.119.2-.032.108-.119.2-.032.108-.119.2-.032.108-.119.2-.032.108-.119.2-.032.108-.119.2-.068.127-.119.2-.068.127-.119.2-.068.127-.119.2-.078.114-.154.219-.068.127-.154.219-.068.127-.154.219-.068.127-.154.219-.068.127-.154.219-.068.127-.154.219-.068.127-.154.219-.068.127-.154.219-.068.127-.189.238-.068.127-.189.238-.068.127-.189.237-.068.127-.189.238-.138.165h0l-.257.364c-7.973,11.172-21.04,20.2-37.073,24.3-10.1,2.587-40.607,10.587-48,12.486ZM513.176,443.313l.113.211.019.035c.043.248.1.443.146.691h0l.019.035h0l.019.035.019.035.019.035h0a38.541,38.541,0,0,1-3.486,25.142h0l-.389.707-.186.327-.135.254-.068.127-.119.2-.068.127-.119.2-.068.127-.154.219-.068.127-.154.219-.068.127-.154.219-.068.127-.154.219-.068.127-.154.219-.068.127-.154.219-.068.127-.154.219-.068.127-.154.219-.068.127-.154.219-.068.127-.189.238-.068.127-.189.238-.068.127-.17.273-.068.127-.17.273-.068.127-.17.273-.1.146-.17.273-.1.146-.2.292-.1.146-.2.292-.1.146-.205.292-.1.146-.205.292-.1.146-.2.292-.173.184h0l-.327.4c-9.685,12.365-25.3,22.537-44.272,27.407-11.962,3.089-48.109,12.543-56.9,14.787l-24.608-95.751c8.776-2.28,45.023-11.38,56.985-14.469,18.97-4.87,37.593-3.488,51.991,2.658l.47.2h0l.235.1.343.132.162.049.308.151.162.049.308.151.162.049.308.151.127.068.308.151.127.068.308.151.127.068.308.151.127.068.254.135.127.068.254.135.127.068.254.135.127.068.254.135.127.068.254.135.127.068.254.135.127.068.254.135.127.068.254.135.127.068.254.135.127.068.219.154.127.068.219.154.127.068.219.154.127.068.219.154.127.068.219.154.127.068.2.119.127.068.219.154.292.2c.219.154.472.289.691.443h0a38.639,38.639,0,0,1,15.165,20.353h0l.076.14c.078.229.138.424.216.653l.019.035.113.211c.081.319.162.637.262.991.162.028.191.419.134.9Z"/></svg>