<?xml version="1.0" standalone="no"?>
<!DOCTYPE svg PUBLIC "-//W3C//DTD SVG 20010904//EN"
 "http://www.w3.org/TR/2001/REC-SVG-20010904/DTD/svg10.dtd">
<svg version="1.0" xmlns="http://www.w3.org/2000/svg"
 width="64.000000pt" height="64.000000pt" viewBox="0 0 64.000000 64.000000"
 preserveAspectRatio="xMidYMid meet">

<g transform="translate(0.000000,64.000000) scale(0.100000,-0.100000)"
fill="#000000" stroke="none">
<path d="M0 509 l0 -131 36 23 c27 16 38 19 44 10 5 -8 12 1 22 25 14 34 14
41 1 61 -17 25 -3 32 17 8 7 -8 18 -15 24 -15 6 0 3 5 -6 11 -10 5 -18 17 -18
25 0 9 -5 12 -13 8 -6 -4 -5 1 5 11 18 19 40 13 32 -9 -3 -8 -1 -17 5 -21 6
-3 12 -1 12 4 1 6 2 17 3 24 0 6 11 16 24 22 12 5 22 13 22 18 0 4 -6 5 -12 1
-9 -5 -9 -2 1 9 7 9 23 17 35 16 19 -1 19 -2 -4 -9 -19 -7 -14 -8 21 -6 50 3
72 12 64 27 -3 5 1 6 10 2 13 -5 14 -7 3 -14 -10 -7 -10 -9 2 -10 8 -1 21 -1
27 0 7 1 33 -8 59 -19 25 -12 52 -19 60 -16 7 3 16 0 20 -6 5 -7 2 -8 -6 -3
-9 5 -11 3 -6 -6 3 -8 9 -22 12 -31 4 -10 10 -18 15 -18 5 0 9 -5 9 -12 0 -6
10 -22 21 -34 20 -21 23 -22 37 -7 11 10 17 12 20 4 2 -6 10 -11 18 -11 9 0
13 -4 9 -9 -3 -5 -1 -12 5 -16 6 -4 10 34 10 109 l0 116 -320 0 -320 0 0 -131z
m390 101 c18 -12 2 -12 -25 0 -13 6 -15 9 -5 9 8 0 22 -4 30 -9z m-306 -106
c3 -8 2 -12 -4 -9 -6 3 -10 10 -10 16 0 14 7 11 14 -7z m491 -44 c-3 -5 -12
-10 -18 -10 -7 0 -6 4 3 10 19 12 23 12 15 0z m-481 -12 c-4 -12 -74 -51 -74
-42 0 3 70 52 77 53 1 1 0 -5 -3 -11z"/>
<path d="M334 482 c3 -5 -9 -7 -27 -5 -28 3 -29 2 -9 -7 12 -5 22 -16 22 -24
0 -20 26 -27 40 -10 7 8 24 14 38 14 25 0 26 1 7 14 -24 16 -79 30 -71 18z
m43 -18 c-3 -3 -12 -4 -19 -1 -8 3 -5 6 6 6 11 1 17 -2 13 -5z"/>
<path d="M141 437 c-13 -21 -12 -21 5 -5 10 10 16 20 13 22 -3 3 -11 -5 -18
-17z"/>
<path d="M407 433 c-23 -4 -25 -6 -13 -19 17 -17 30 -19 20 -2 -4 6 -3 8 3 5
11 -7 10 -43 -2 -54 -4 -5 -5 -3 -1 4 3 6 2 14 -4 18 -5 3 -10 1 -10 -5 0 -6
-6 -8 -12 -5 -7 4 -4 -1 7 -10 l20 -16 -20 -16 c-17 -13 -17 -15 -2 -9 10 3
16 2 13 -2 -2 -4 -1 -14 5 -22 7 -13 9 -12 9 2 0 9 7 24 16 32 8 9 12 16 7 16
-4 0 -8 20 -7 45 0 25 0 44 0 44 -1 -1 -13 -4 -29 -6z"/>
<path d="M196 403 c-4 -9 -3 -20 1 -24 4 -4 9 3 9 17 2 28 -1 31 -10 7z"/>
<path d="M109 373 c-7 -21 -12 -49 -12 -63 1 -14 0 -20 -3 -15 -2 6 -20 9 -39
7 -29 -4 -36 0 -44 19 -6 16 -9 -34 -10 -148 l-2 -173 321 0 321 0 -1 195 c-1
169 -4 195 -17 195 -13 0 -13 -3 -3 -15 17 -21 7 -29 -19 -15 -16 8 -21 8 -21
-1 0 -6 -7 -9 -15 -5 -11 4 -15 -2 -15 -20 0 -59 -77 -154 -138 -169 -14 -3
-32 -14 -39 -23 -12 -16 -13 -16 -7 1 4 11 -4 7 -25 -12 -30 -28 -45 -81 -18
-65 8 5 8 2 -2 -9 -15 -19 -26 -23 -15 -5 5 7 2 9 -9 5 -11 -4 -14 -2 -10 9 3
9 -2 14 -15 14 -12 0 -23 -9 -27 -19 -3 -11 -13 -22 -22 -25 -12 -5 -14 0 -11
24 4 24 1 30 -9 25 -8 -3 -17 -5 -19 -5 -3 0 -2 -5 2 -11 4 -7 1 -10 -6 -7 -7
2 -17 14 -21 27 -5 12 -5 20 0 17 5 -3 15 2 22 11 12 15 12 16 -3 10 -27 -10
-21 5 11 33 27 21 34 49 10 34 -13 -8 -53 36 -74 80 -16 33 -15 78 1 119 3 10
4 17 1 17 -3 0 -11 -17 -18 -37z m506 -41 c-3 -3 -11 0 -18 7 -9 10 -8 11 6 5
10 -3 15 -9 12 -12z m-41 -7 c-4 -8 -8 -15 -10 -15 -2 0 -4 7 -4 15 0 8 4 15
10 15 5 0 7 -7 4 -15z m-93 -135 c-24 -22 -51 -40 -60 -40 -9 0 -2 7 15 16 18
9 42 26 55 40 12 13 25 24 28 24 3 -1 -14 -19 -38 -40z m-218 -135 c-3 -9 -8
-14 -10 -11 -3 3 -2 9 2 15 9 16 15 13 8 -4z"/>
<path d="M212 340 c17 -28 44 -38 61 -21 7 7 3 8 -13 4 -16 -4 -28 1 -43 18
l-19 24 14 -25z"/>
<path d="M297 315 c-16 -11 -16 -13 -2 -19 11 -4 14 -2 9 6 -4 7 -3 8 4 4 6
-4 9 -13 5 -21 -3 -8 0 -15 6 -15 12 0 15 29 3 47 -5 8 -12 8 -25 -2z"/>
<path d="M354 304 c3 -9 6 -20 6 -26 0 -6 9 -3 21 8 19 17 19 19 2 25 -29 12
-36 10 -29 -7z"/>
<path d="M294 263 c19 -23 50 -30 60 -14 4 5 -3 7 -14 4 -12 -3 -30 2 -43 13
l-22 19 19 -22z"/>
</g>
</svg>
