<?xml version="1.0" encoding="utf-8"?>
<!-- Generator: Adobe Illustrator 25.2.3, SVG Export Plug-In . SVG Version: 6.00 Build 0)  -->
<svg version="1.1" id="Layer_1" xmlns="http://www.w3.org/2000/svg" xmlns:xlink="http://www.w3.org/1999/xlink" x="0px" y="0px"
	 viewBox="0 0 32 32" style="enable-background:new 0 0 32 32;" xml:space="preserve">
<style type="text/css">
	.st0{opacity:0.6;fill:url(#SVGID_1_);enable-background:new    ;}
	.st1{fill:#00A5BD;}
	.st2{fill:#FFFFFF;}
</style>
<g>
	
		<linearGradient id="SVGID_1_" gradientUnits="userSpaceOnUse" x1="27.3246" y1="-9447.4971" x2="4.6892" y2="-9470.1328" gradientTransform="matrix(1 0 0 1 0 9474.8193)">
		<stop  offset="0" style="stop-color:#377F94"/>
		<stop  offset="1" style="stop-color:#34ADC4"/>
	</linearGradient>
	<path class="st0" d="M23.4,30.2C21.2,31.3,18.7,32,16,32c-2,0-3.9-0.4-5.6-1c0-0.1,0-0.1,0-0.2c0-0.5,0.2-1,0.5-1.5
		c0.3-0.5,0.7-1.1,1.3-1.8c1.5,0.2,3.7,0.4,6.5,0.4c1.9,0.1,3.2,0.2,3.9,0.5c0.6,0.3,1,0.7,1,1.4C23.5,29.9,23.5,30.1,23.4,30.2z
		 M16.1,21c0.9,0,1.7-0.4,2.3-1.1c0.6-0.7,0.9-1.8,0.9-3.3c0-2-0.4-3.5-1.3-4.7c-0.6-0.8-1.4-1.2-2.4-1.2c-0.9,0-1.7,0.4-2.3,1.1
		c-0.6,0.7-0.9,1.9-0.9,3.4c0,2,0.4,3.5,1.3,4.6C14.3,20.6,15.1,21,16.1,21z M16,0C7.2,0,0,7.2,0,16c0,6.2,3.5,11.5,8.6,14.2
		c0.2-0.2,0.4-0.5,0.6-0.8c0.1-0.1,0.7-0.8,1.9-2c-0.6-0.4-1.1-0.7-1.4-1s-0.4-0.7-0.4-1c0-0.4,0.2-0.9,0.5-1.5
		c0.4-0.6,1.2-1.4,2.5-2.5c-1-0.5-1.9-1.2-2.4-2.1c-0.6-0.9-0.8-1.9-0.8-3c0-1.7,0.6-3.2,1.9-4.4c1.3-1.2,2.9-1.8,4.9-1.8
		c1.6,0,3,0.4,4.1,1.1c1-1,1.8-1.9,2.3-2.6c0.7-1,1-1.8,1-2.6c0-0.6-0.2-1.1-0.6-1.5c-0.4-0.4-0.8-0.6-1.3-0.6
		c-0.5,0-0.9,0.1-1.3,0.4c-0.4,0.3-0.7,0.7-0.8,1.2h-0.3c0.1-0.9,0.4-1.5,0.9-2c0.5-0.5,1.1-0.7,1.8-0.7c0.8,0,1.4,0.2,2,0.8
		c0.5,0.5,0.8,1.1,0.8,1.8c0,0.5-0.1,1-0.3,1.5c-0.3,0.8-0.9,1.6-1.7,2.4c-1.2,1.3-1.9,2-2.2,2.3l0,0h2.5c0.5,0,0.9,0,1.1-0.1
		c0.2,0,0.4-0.1,0.6-0.2c0.2-0.1,0.3-0.3,0.4-0.5h0.3L24.3,13h-2.6c0.6,0.9,0.9,1.9,0.9,3.2c0,1.6-0.6,3-1.8,4.1
		c-1.2,1.1-2.9,1.7-4.9,1.7c-0.8,0-1.7-0.1-2.6-0.4c-0.6,0.5-0.9,0.9-1.1,1.2c-0.2,0.4-0.3,0.7-0.3,0.9c0,0.2,0.1,0.4,0.3,0.6
		c0.2,0.2,0.6,0.3,1.2,0.4c0.3,0.1,1.2,0.1,2.6,0.1c2.6,0.1,4.2,0.2,5,0.3c1.2,0.2,2.1,0.6,2.8,1.3c0.7,0.7,1,1.6,1,2.6
		c0,0.1,0,0.2,0,0.3C29.1,26.5,32,21.6,32,16C32,7.2,24.8,0,16,0z"/>
	<path class="st1" d="M18,12c0.9,1.1,1.3,2.7,1.3,4.7c0,1.5-0.3,2.6-0.9,3.3C17.8,20.7,17,21,16.1,21c-1,0-1.8-0.4-2.5-1.2
		c-0.8-1.1-1.3-2.6-1.3-4.6c0-1.5,0.3-2.6,0.9-3.4c0.6-0.7,1.4-1.1,2.3-1.1C16.6,10.7,17.4,11.2,18,12z M11.1,27.4
		c-0.6-0.4-1.1-0.7-1.4-1s-0.4-0.7-0.4-1c0-0.4,0.2-0.9,0.5-1.5c0.4-0.6,1.2-1.4,2.5-2.5c-1-0.5-1.9-1.2-2.4-2.1
		c-0.6-0.9-0.8-1.9-0.8-3c0-1.7,0.6-3.2,1.9-4.4c1.3-1.2,2.9-1.8,4.9-1.8c1.6,0,3,0.4,4.1,1.1c1-1,1.8-1.9,2.3-2.6
		c0.7-1,1-1.8,1-2.6c0-0.6-0.2-1.1-0.6-1.5c-0.4-0.4-0.8-0.6-1.3-0.6c-0.5,0-0.9,0.1-1.3,0.4c-0.4,0.3-0.7,0.7-0.8,1.2h-0.3
		c0.1-0.9,0.4-1.5,0.9-2c0.5-0.5,1.1-0.7,1.8-0.7c0.4,0,0.8,0.1,1.1,0.2C20.9,1.7,18.5,1,16,1C7.7,1,1,7.7,1,16
		c0,5.8,3.3,10.9,8.2,13.4C9.3,29.2,10,28.6,11.1,27.4z M23.5,3c0.1,0.1,0.2,0.2,0.3,0.3c0.5,0.5,0.8,1.1,0.8,1.8
		c0,0.5-0.1,1-0.3,1.5c-0.3,0.8-0.9,1.6-1.7,2.4c-1.2,1.3-1.9,2-2.2,2.3l0,0h2.5c0.5,0,0.9,0,1.1-0.1c0.2,0,0.4-0.1,0.6-0.2
		c0.2-0.1,0.3-0.3,0.4-0.5h0.3L24.3,13h-2.6c0.6,0.9,0.9,1.9,0.9,3.2c0,1.6-0.6,3-1.8,4.1c-1.2,1.1-2.9,1.7-4.9,1.7
		c-0.8,0-1.7-0.1-2.6-0.4c-0.6,0.5-0.9,0.9-1.1,1.2s-0.3,0.7-0.3,0.9c0,0.2,0.1,0.4,0.3,0.6c0.2,0.2,0.6,0.3,1.2,0.4
		c0.3,0.1,1.2,0.1,2.6,0.1c2.6,0.1,4.2,0.2,5,0.3c1.2,0.2,2.1,0.6,2.8,1.3c0.5,0.5,0.8,1,0.9,1.7C28.5,25.5,31,21,31,16
		C31,10.5,28,5.6,23.5,3z M22.5,28.4c-0.6-0.3-1.9-0.4-3.9-0.5c-2.8-0.1-5-0.2-6.5-0.4c-0.6,0.6-1,1.2-1.3,1.8
		c-0.1,0.2-0.2,0.5-0.3,0.7c1.7,0.7,3.6,1,5.5,1c2.6,0,5.1-0.7,7.3-1.9C23.1,28.8,22.9,28.6,22.5,28.4z"/>
	<path class="st2" d="M25.2,10.5h-0.3c-0.1,0.2-0.3,0.4-0.4,0.5c-0.2,0.1-0.4,0.2-0.6,0.2c-0.2,0-0.6,0.1-1.1,0.1h-2.5l0,0
		c0.3-0.3,1-1,2.2-2.3c0.8-0.9,1.3-1.7,1.7-2.4c0.2-0.5,0.3-1,0.3-1.5c0-0.7-0.3-1.3-0.8-1.8c-0.5-0.5-1.2-0.8-2-0.8
		c-0.7,0-1.3,0.2-1.8,0.7c-0.5,0.5-0.8,1.1-0.9,2h0.3c0.2-0.5,0.5-0.9,0.8-1.2s0.8-0.4,1.3-0.4c0.5,0,1,0.2,1.3,0.6
		c0.4,0.4,0.6,0.9,0.6,1.5c0,0.8-0.3,1.7-1,2.6c-0.5,0.7-1.3,1.6-2.3,2.6c-1.2-0.7-2.6-1.1-4.1-1.1c-2,0-3.6,0.6-4.9,1.8
		c-1.3,1.2-1.9,2.7-1.9,4.4c0,1.1,0.3,2.1,0.8,3s1.4,1.6,2.4,2.1c-1.3,1.1-2.1,1.9-2.5,2.5c-0.4,0.6-0.5,1.1-0.5,1.5
		c0,0.4,0.1,0.7,0.4,1c0.3,0.3,0.7,0.7,1.4,1c-1.2,1.2-1.8,1.9-1.9,2c-0.2,0.3-0.4,0.6-0.6,0.8c0.6,0.3,1.2,0.6,1.8,0.8
		c0-0.1,0-0.1,0-0.2c0-0.5,0.2-1,0.5-1.5c0.3-0.5,0.7-1.1,1.3-1.8c1.5,0.2,3.7,0.4,6.5,0.4c1.9,0.1,3.2,0.2,3.9,0.5
		c0.6,0.3,1,0.7,1,1.4c0,0.1,0,0.2,0,0.4c0.5-0.2,0.9-0.5,1.4-0.8c0-0.1,0-0.2,0-0.3c0-1-0.3-1.9-1-2.6c-0.7-0.7-1.6-1.1-2.8-1.3
		c-0.8-0.1-2.4-0.2-5-0.3c-1.4,0-2.3-0.1-2.6-0.1c-0.6-0.1-1-0.2-1.2-0.4c-0.2-0.2-0.3-0.4-0.3-0.6c0-0.2,0.1-0.5,0.3-0.9
		c0.2-0.4,0.6-0.8,1.1-1.2c0.9,0.3,1.8,0.4,2.6,0.4c2.1,0,3.7-0.6,4.9-1.7c1.2-1.1,1.8-2.5,1.8-4.1c0-1.3-0.3-2.3-0.9-3.2h2.6
		L25.2,10.5z M18.4,20C17.8,20.7,17,21,16.1,21c-1,0-1.8-0.4-2.5-1.2c-0.8-1.1-1.3-2.6-1.3-4.6c0-1.5,0.3-2.6,0.9-3.4
		c0.6-0.7,1.4-1.1,2.3-1.1c1,0,1.8,0.4,2.4,1.2c0.9,1.1,1.3,2.7,1.3,4.7C19.3,18.2,19,19.3,18.4,20z"/>
</g>
</svg>
