<?xml version="1.0" standalone="no"?>
<!DOCTYPE svg PUBLIC "-//W3C//DTD SVG 20010904//EN"
 "http://www.w3.org/TR/2001/REC-SVG-20010904/DTD/svg10.dtd">
<svg version="1.0" xmlns="http://www.w3.org/2000/svg"
 width="850.000000pt" height="855.000000pt" viewBox="0 0 850.000000 855.000000"
 preserveAspectRatio="xMidYMid meet">

<g transform="translate(0.000000,855.000000) scale(0.100000,-0.100000)"
fill="#000000" stroke="none">
<path d="M3875 8539 c-858 -80 -1616 -386 -2297 -927 -170 -135 -503 -468
-640 -640 -512 -642 -807 -1341 -915 -2167 -25 -197 -26 -817 0 -1010 89 -666
293 -1239 632 -1775 272 -429 656 -840 1075 -1149 614 -454 1345 -733 2109
-805 215 -21 607 -21 822 0 872 82 1681 426 2354 999 136 116 383 365 496 500
476 566 798 1257 928 1985 50 278 55 357 55 750 0 393 -5 472 -55 750 -214
1205 -946 2265 -2000 2901 -548 330 -1166 529 -1829 589 -133 12 -603 11 -735
-1z m795 -914 c165 -19 240 -30 325 -50 39 -8 84 -18 100 -21 17 -3 44 -12 60
-19 17 -8 57 -21 90 -30 33 -9 74 -21 90 -26 17 -6 59 -20 95 -31 36 -12 71
-27 78 -35 7 -7 19 -13 26 -13 7 0 36 -11 64 -25 29 -14 57 -25 62 -25 16 0
74 -31 82 -44 4 -6 8 -8 8 -4 0 4 27 -8 59 -27 33 -19 64 -35 69 -35 5 0 16
-7 23 -17 13 -15 12 -15 -16 -1 -109 56 -390 135 -585 165 -177 27 -556 24
-758 -5 -363 -53 -704 -170 -1187 -407 -280 -137 -430 -221 -1290 -718 -429
-247 -788 -452 -798 -455 -17 -4 -17 -2 3 32 11 21 27 47 34 59 7 12 16 34 20
50 4 15 11 27 16 27 6 0 10 7 10 15 0 8 5 15 11 15 5 0 7 5 4 10 -3 6 1 10 10
10 9 0 14 4 10 9 -5 9 45 87 127 198 21 29 38 56 38 62 0 5 18 26 40 47 22 21
40 44 40 50 0 7 15 29 32 51 54 63 401 413 406 408 3 -2 13 7 24 20 11 14 39
36 63 50 24 14 50 36 58 48 8 12 27 29 43 37 16 8 61 38 99 65 96 69 146 101
173 109 12 4 22 11 22 16 0 5 24 21 53 35 29 13 93 47 143 75 49 27 95 50 102
50 6 0 35 11 64 25 28 14 57 25 64 25 7 0 19 6 26 13 13 13 142 61 208 77 86
21 155 43 160 49 3 5 21 11 40 14 19 4 67 14 105 22 82 19 159 31 310 49 157
19 686 19 845 1z m465 -974 c344 -75 667 -250 938 -510 184 -177 342 -392 454
-621 145 -296 209 -546 220 -861 12 -354 -40 -600 -188 -889 -217 -422 -521
-684 -1374 -1182 -491 -287 -1745 -1008 -1753 -1008 -9 0 -492 830 -492 846 0
5 60 43 133 84 72 42 131 79 131 84 -1 4 -170 298 -375 654 -205 356 -441 765
-524 908 l-151 261 -138 -79 c-75 -44 -139 -79 -140 -77 -18 21 -486 844 -484
851 4 12 1759 1025 1978 1142 443 237 794 368 1096 411 155 22 539 14 669 -14z
m-4040 -2469 c1 -1 85 45 185 103 101 58 186 102 190 98 13 -15 1400 -2423
1400 -2431 0 -4 -81 -54 -180 -110 -99 -57 -180 -105 -180 -107 0 -2 49 -88
109 -192 59 -103 113 -198 120 -210 10 -20 -3 -16 -89 28 -55 28 -100 55 -100
60 0 4 -10 11 -22 15 -26 8 -143 82 -203 129 -22 17 -53 37 -69 45 -16 8 -35
25 -43 37 -8 12 -36 34 -61 49 -85 50 -522 494 -522 531 0 5 -18 26 -40 47
-22 21 -40 42 -40 47 0 6 -17 33 -38 62 -82 111 -132 189 -127 198 4 5 -1 9
-10 9 -9 0 -13 5 -10 10 3 6 1 10 -4 10 -6 0 -11 7 -11 15 0 8 -4 15 -10 15
-5 0 -13 16 -19 35 -5 19 -18 47 -29 63 -12 15 -24 40 -27 55 -4 15 -12 27
-18 27 -6 0 -8 3 -4 6 3 3 -3 15 -14 27 -10 11 -19 29 -19 39 0 18 -3 26 -34
85 -9 17 -16 38 -16 46 0 9 -6 22 -12 29 -7 7 -15 22 -16 33 -2 11 -7 22 -12
25 -4 3 -11 21 -15 40 -4 19 -11 40 -16 46 -6 7 -12 25 -14 40 -9 55 -45 168
-56 175 -6 4 -9 11 -5 17 3 5 0 29 -8 53 -28 90 -49 214 -76 438 -6 46 -10
193 -10 325 l0 241 86 -150 c48 -82 88 -151 89 -153z m6485 -252 c-17 -180
-47 -358 -76 -449 -7 -24 -11 -48 -8 -53 4 -6 1 -13 -5 -17 -11 -7 -47 -120
-56 -175 -2 -15 -8 -33 -14 -40 -5 -6 -12 -27 -16 -46 -4 -19 -11 -37 -15 -40
-5 -3 -10 -14 -12 -25 -1 -11 -9 -26 -15 -33 -7 -7 -13 -20 -13 -29 0 -8 -7
-29 -16 -46 -31 -59 -34 -67 -34 -85 0 -10 -9 -28 -19 -39 -11 -12 -17 -24
-14 -27 4 -3 1 -6 -5 -6 -7 0 -11 -3 -10 -7 2 -12 -13 -45 -35 -76 -10 -15
-23 -43 -28 -62 -6 -19 -14 -35 -19 -35 -6 0 -10 -7 -10 -15 0 -8 -5 -15 -11
-15 -5 0 -7 -4 -4 -10 3 -5 -1 -10 -10 -10 -9 0 -14 -4 -10 -9 5 -9 -45 -87
-127 -198 -21 -29 -38 -56 -38 -62 0 -5 -18 -26 -40 -47 -22 -21 -40 -42 -40
-47 0 -20 -108 -141 -269 -302 -94 -93 -171 -166 -171 -161 0 5 -9 -3 -20 -17
-11 -14 -37 -36 -58 -48 -20 -12 -50 -36 -67 -52 -16 -16 -52 -44 -80 -63
-154 -105 -213 -142 -233 -148 -12 -4 -22 -11 -22 -16 0 -5 -26 -22 -57 -37
-32 -14 -79 -39 -105 -55 -27 -15 -48 -24 -48 -20 0 4 -4 2 -8 -4 -8 -13 -66
-44 -82 -44 -5 0 -33 -11 -62 -25 -28 -14 -57 -25 -64 -25 -7 0 -19 -6 -26
-13 -15 -15 -138 -58 -248 -87 -41 -11 -86 -26 -100 -34 -14 -7 -41 -16 -60
-19 -19 -4 -66 -14 -105 -22 -84 -20 -159 -31 -325 -50 -130 -15 -672 -19
-779 -7 l-54 7 779 449 c1112 641 1479 863 1801 1091 477 337 726 613 937
1036 124 248 190 469 218 729 l13 115 3 -180 c2 -99 -1 -232 -8 -295z"/>
<path d="M4455 6150 c-259 -30 -551 -136 -908 -331 -127 -69 -1414 -810 -1449
-834 -15 -10 2 -44 164 -326 99 -173 182 -316 184 -318 2 -2 50 24 107 57
l105 60 398 -691 c220 -379 400 -693 401 -696 2 -3 -44 -33 -101 -66 l-104
-60 178 -309 c98 -170 183 -313 188 -318 8 -8 1115 623 1472 840 303 183 567
375 666 484 170 188 283 399 335 628 26 111 36 371 20 495 -38 288 -158 567
-346 810 -173 223 -437 417 -693 509 -166 60 -426 87 -617 66z m-213 -931
c107 -22 195 -75 304 -184 248 -248 420 -622 402 -877 -12 -164 -129 -303
-380 -451 l-76 -46 -40 67 c-22 37 -202 350 -402 696 -281 487 -359 630 -349
637 8 5 68 36 134 69 180 89 289 113 407 89z"/>
</g>
</svg>
