<?xml version="1.0" encoding="UTF-8"?>
<svg xmlns="http://www.w3.org/2000/svg" xmlns:xlink="http://www.w3.org/1999/xlink" width="32pt" height="32pt" viewBox="0 0 32 32" version="1.1">
<defs>
<filter id="alpha" filterUnits="objectBoundingBox" x="0%" y="0%" width="100%" height="100%">
  <feColorMatrix type="matrix" in="SourceGraphic" values="0 0 0 0 1 0 0 0 0 1 0 0 0 0 1 0 0 0 1 0"/>
</filter>
<mask id="mask0">
  <g filter="url(#alpha)">
<rect x="0" y="0" width="32" height="32" style="fill:rgb(0%,0%,0%);fill-opacity:0.6;stroke:none;"/>
  </g>
</mask>
<linearGradient id="linear0" gradientUnits="userSpaceOnUse" x1="853.5439" y1="853.5244" x2="146.4537" y2="146.4342" gradientTransform="matrix(0.032,0,0,0.032,0,0)">
<stop offset="0" style="stop-color:rgb(21.568627%,49.803922%,58.039216%);stop-opacity:1;"/>
<stop offset="1" style="stop-color:rgb(20.392157%,67.843137%,76.862745%);stop-opacity:1;"/>
</linearGradient>
<clipPath id="clip1">
  <rect width="32" height="32"/>
</clipPath>
<g id="surface6" clip-path="url(#clip1)">
<path style=" stroke:none;fill-rule:nonzero;fill:url(#linear0);" d="M 23.417969 30.179688 C 21.203125 31.339844 18.679688 32 16 32 C 14.023438 32 12.128906 31.640625 10.378906 30.984375 C 10.371094 30.921875 10.363281 30.839844 10.363281 30.78125 C 10.363281 30.324219 10.511719 29.820312 10.816406 29.273438 C 11.117188 28.730469 11.5625 28.140625 12.152344 27.507812 C 13.664062 27.722656 15.828125 27.867188 18.636719 27.945312 C 20.5625 27.992188 21.847656 28.152344 22.496094 28.425781 C 23.136719 28.699219 23.453125 29.15625 23.453125 29.800781 C 23.453125 29.929688 23.441406 30.054688 23.417969 30.179688 Z M 16.074219 21.050781 C 17.019531 21.050781 17.796875 20.695312 18.40625 19.984375 C 19.019531 19.273438 19.324219 18.160156 19.324219 16.636719 C 19.324219 14.65625 18.894531 13.105469 18.035156 11.984375 C 17.398438 11.160156 16.585938 10.75 15.589844 10.75 C 14.667969 10.75 13.894531 11.117188 13.273438 11.851562 C 12.652344 12.589844 12.339844 13.714844 12.339844 15.234375 C 12.339844 17.207031 12.765625 18.730469 13.609375 19.816406 C 14.257812 20.636719 15.078125 21.050781 16.074219 21.050781 Z M 16 0 C 7.164062 0 0 7.164062 0 16 C 0 22.160156 3.480469 27.507812 8.585938 30.179688 C 8.757812 29.941406 8.980469 29.65625 9.207031 29.375 C 9.296875 29.261719 9.933594 28.589844 11.125 27.355469 C 10.472656 26.96875 10.015625 26.621094 9.746094 26.3125 C 9.480469 26.007812 9.34375 25.660156 9.34375 25.273438 C 9.34375 24.835938 9.523438 24.324219 9.878906 23.734375 C 10.234375 23.148438 11.054688 22.316406 12.339844 21.238281 C 11.289062 20.726562 10.484375 20.011719 9.925781 19.09375 C 9.363281 18.171875 9.082031 17.15625 9.082031 16.042969 C 9.082031 14.34375 9.722656 12.882812 11.003906 11.65625 C 12.285156 10.433594 13.925781 9.820312 15.925781 9.820312 C 17.507812 9.820312 18.886719 10.191406 20.058594 10.9375 C 21.09375 9.925781 21.859375 9.0625 22.359375 8.355469 C 23.039062 7.390625 23.378906 6.511719 23.378906 5.710938 C 23.378906 5.101562 23.191406 4.601562 22.820312 4.210938 C 22.449219 3.820312 22 3.625 21.484375 3.625 C 21.011719 3.625 20.589844 3.761719 20.214844 4.039062 C 19.839844 4.3125 19.5625 4.71875 19.382812 5.25 L 19.121094 5.25 C 19.238281 4.378906 19.542969 3.707031 20.03125 3.238281 C 20.519531 2.769531 21.128906 2.535156 21.859375 2.535156 C 22.640625 2.535156 23.289062 2.789062 23.8125 3.289062 C 24.332031 3.789062 24.59375 4.378906 24.59375 5.058594 C 24.59375 5.546875 24.480469 6.035156 24.253906 6.519531 C 23.902344 7.285156 23.335938 8.09375 22.554688 8.949219 C 21.402344 10.203125 20.679688 10.972656 20.375 11.253906 L 20.390625 11.273438 L 22.859375 11.273438 C 23.371094 11.273438 23.726562 11.253906 23.933594 11.214844 C 24.136719 11.175781 24.324219 11.101562 24.488281 10.984375 C 24.652344 10.871094 24.796875 10.703125 24.921875 10.492188 L 25.183594 10.492188 L 24.335938 12.945312 L 21.738281 12.945312 C 22.320312 13.808594 22.609375 14.878906 22.609375 16.15625 C 22.609375 17.757812 22 19.128906 20.777344 20.269531 C 19.554688 21.410156 17.914062 21.980469 15.855469 21.980469 C 15.007812 21.980469 14.140625 21.851562 13.253906 21.601562 C 12.703125 22.070312 12.332031 22.480469 12.136719 22.832031 C 11.941406 23.1875 11.847656 23.484375 11.847656 23.734375 C 11.847656 23.945312 11.949219 24.148438 12.15625 24.34375 C 12.363281 24.542969 12.765625 24.6875 13.363281 24.773438 C 13.714844 24.828125 14.589844 24.875 15.988281 24.917969 C 18.566406 24.988281 20.234375 25.085938 20.996094 25.207031 C 22.160156 25.371094 23.085938 25.800781 23.78125 26.5 C 24.472656 27.195312 24.820312 28.054688 24.820312 29.078125 C 24.820312 29.171875 24.816406 29.261719 24.8125 29.355469 C 29.140625 26.492188 32 21.582031 32 16 C 32 7.164062 24.835938 0 16 0 Z M 16 0 "/>
</g>
<linearGradient id="linear1" gradientUnits="userSpaceOnUse" x1="168.9458" y1="168.9448" x2="831.0428" y2="831.0419" gradientTransform="matrix(0.032,0,0,0.032,0,0)">
<stop offset="0" style="stop-color:rgb(0%,64.705882%,74.117647%);stop-opacity:1;"/>
<stop offset="1" style="stop-color:rgb(0%,36.862745%,47.058824%);stop-opacity:1;"/>
</linearGradient>
</defs>
<g id="surface1">
<use xlink:href="#surface6" mask="url(#mask0)"/>
<path style=" stroke:none;fill-rule:nonzero;fill:url(#linear1);" d="M 18.035156 11.984375 C 18.894531 13.105469 19.324219 14.65625 19.324219 16.636719 C 19.324219 18.160156 19.019531 19.273438 18.40625 19.984375 C 17.796875 20.695312 17.019531 21.050781 16.074219 21.050781 C 15.078125 21.050781 14.257812 20.636719 13.609375 19.816406 C 12.765625 18.730469 12.339844 17.207031 12.339844 15.234375 C 12.339844 13.714844 12.652344 12.589844 13.273438 11.851562 C 13.894531 11.117188 14.667969 10.75 15.589844 10.75 C 16.585938 10.75 17.398438 11.160156 18.035156 11.984375 Z M 11.125 27.355469 C 10.472656 26.96875 10.015625 26.621094 9.746094 26.3125 C 9.480469 26.007812 9.34375 25.660156 9.34375 25.273438 C 9.34375 24.835938 9.523438 24.324219 9.878906 23.734375 C 10.234375 23.148438 11.054688 22.316406 12.339844 21.238281 C 11.289062 20.726562 10.484375 20.011719 9.925781 19.09375 C 9.363281 18.171875 9.082031 17.15625 9.082031 16.042969 C 9.082031 14.34375 9.722656 12.882812 11.003906 11.65625 C 12.285156 10.433594 13.925781 9.820312 15.925781 9.820312 C 17.507812 9.820312 18.886719 10.191406 20.058594 10.9375 C 21.09375 9.925781 21.859375 9.0625 22.359375 8.355469 C 23.039062 7.390625 23.378906 6.511719 23.378906 5.710938 C 23.378906 5.101562 23.191406 4.601562 22.820312 4.210938 C 22.449219 3.820312 22 3.625 21.484375 3.625 C 21.011719 3.625 20.589844 3.761719 20.214844 4.039062 C 19.839844 4.3125 19.5625 4.71875 19.382812 5.25 L 19.121094 5.25 C 19.238281 4.378906 19.542969 3.707031 20.03125 3.238281 C 20.519531 2.769531 21.128906 2.535156 21.859375 2.535156 C 22.28125 2.535156 22.660156 2.609375 23.003906 2.753906 C 20.914062 1.648438 18.53125 1.019531 16 1.019531 C 7.726562 1.019531 1.019531 7.726562 1.019531 16 C 1.019531 21.832031 4.351562 26.886719 9.21875 29.363281 C 9.332031 29.222656 9.96875 28.554688 11.125 27.355469 Z M 23.484375 3.019531 C 23.597656 3.097656 23.707031 3.1875 23.8125 3.289062 C 24.332031 3.789062 24.59375 4.378906 24.59375 5.058594 C 24.59375 5.546875 24.480469 6.035156 24.253906 6.519531 C 23.902344 7.285156 23.335938 8.09375 22.554688 8.949219 C 21.402344 10.203125 20.679688 10.972656 20.375 11.253906 L 20.390625 11.273438 L 22.859375 11.273438 C 23.371094 11.273438 23.726562 11.253906 23.933594 11.214844 C 24.136719 11.175781 24.324219 11.101562 24.488281 10.984375 C 24.652344 10.871094 24.796875 10.707031 24.921875 10.492188 L 25.183594 10.492188 L 24.335938 12.945312 L 21.738281 12.945312 C 22.320312 13.808594 22.609375 14.878906 22.609375 16.15625 C 22.609375 17.757812 22 19.128906 20.777344 20.269531 C 19.554688 21.410156 17.914062 21.980469 15.855469 21.980469 C 15.007812 21.980469 14.140625 21.851562 13.253906 21.601562 C 12.703125 22.070312 12.332031 22.480469 12.136719 22.832031 C 11.941406 23.1875 11.847656 23.484375 11.847656 23.734375 C 11.847656 23.945312 11.949219 24.148438 12.15625 24.34375 C 12.363281 24.542969 12.765625 24.6875 13.363281 24.773438 C 13.714844 24.828125 14.589844 24.875 15.988281 24.917969 C 18.566406 24.988281 20.234375 25.085938 20.996094 25.207031 C 22.160156 25.371094 23.085938 25.800781 23.78125 26.5 C 24.261719 26.980469 24.574219 27.542969 24.722656 28.183594 C 28.511719 25.464844 30.980469 21.019531 30.980469 16 C 30.980469 10.453125 27.964844 5.609375 23.484375 3.019531 Z M 22.496094 28.425781 C 21.847656 28.152344 20.5625 27.992188 18.636719 27.945312 C 15.828125 27.867188 13.664062 27.722656 12.152344 27.507812 C 11.5625 28.140625 11.117188 28.730469 10.816406 29.273438 C 10.6875 29.507812 10.585938 29.730469 10.511719 29.945312 C 12.210938 30.613281 14.0625 30.980469 16 30.980469 C 18.644531 30.980469 21.128906 30.296875 23.285156 29.09375 C 23.132812 28.808594 22.867188 28.585938 22.496094 28.425781 Z M 22.496094 28.425781 "/>
<path style=" stroke:none;fill-rule:nonzero;fill:rgb(100%,100%,100%);fill-opacity:1;" d="M 25.183594 10.492188 L 24.921875 10.492188 C 24.796875 10.707031 24.652344 10.871094 24.488281 10.984375 C 24.324219 11.101562 24.136719 11.175781 23.933594 11.214844 C 23.726562 11.253906 23.371094 11.273438 22.859375 11.273438 L 20.390625 11.273438 L 20.375 11.253906 C 20.679688 10.972656 21.402344 10.203125 22.554688 8.949219 C 23.335938 8.09375 23.902344 7.285156 24.253906 6.519531 C 24.480469 6.035156 24.59375 5.546875 24.59375 5.058594 C 24.59375 4.378906 24.332031 3.789062 23.8125 3.289062 C 23.289062 2.789062 22.640625 2.535156 21.859375 2.535156 C 21.128906 2.535156 20.519531 2.769531 20.03125 3.238281 C 19.542969 3.707031 19.238281 4.378906 19.121094 5.25 L 19.382812 5.25 C 19.5625 4.71875 19.839844 4.3125 20.214844 4.039062 C 20.589844 3.761719 21.011719 3.625 21.484375 3.625 C 22 3.625 22.449219 3.820312 22.820312 4.210938 C 23.191406 4.601562 23.378906 5.105469 23.378906 5.710938 C 23.378906 6.511719 23.039062 7.390625 22.359375 8.355469 C 21.859375 9.066406 21.09375 9.925781 20.058594 10.9375 C 18.886719 10.191406 17.507812 9.820312 15.925781 9.820312 C 13.925781 9.820312 12.285156 10.433594 11.003906 11.65625 C 9.722656 12.882812 9.082031 14.34375 9.082031 16.042969 C 9.082031 17.15625 9.363281 18.171875 9.925781 19.09375 C 10.484375 20.011719 11.289062 20.726562 12.339844 21.238281 C 11.054688 22.316406 10.234375 23.148438 9.878906 23.734375 C 9.523438 24.324219 9.34375 24.835938 9.34375 25.273438 C 9.34375 25.660156 9.480469 26.007812 9.746094 26.3125 C 10.015625 26.621094 10.476562 26.96875 11.125 27.355469 C 9.933594 28.589844 9.296875 29.261719 9.207031 29.375 C 8.976562 29.660156 8.761719 29.9375 8.585938 30.179688 C 9.160156 30.480469 9.765625 30.753906 10.378906 30.984375 C 10.371094 30.921875 10.363281 30.847656 10.363281 30.78125 C 10.363281 30.324219 10.511719 29.820312 10.816406 29.273438 C 11.117188 28.730469 11.5625 28.140625 12.152344 27.507812 C 13.664062 27.722656 15.828125 27.867188 18.636719 27.945312 C 20.5625 27.992188 21.847656 28.152344 22.496094 28.425781 C 23.136719 28.699219 23.453125 29.15625 23.453125 29.800781 C 23.453125 29.933594 23.441406 30.046875 23.417969 30.179688 C 23.898438 29.929688 24.363281 29.652344 24.8125 29.355469 C 24.820312 29.257812 24.820312 29.179688 24.820312 29.078125 C 24.820312 28.054688 24.472656 27.195312 23.78125 26.5 C 23.085938 25.800781 22.160156 25.371094 20.996094 25.207031 C 20.234375 25.085938 18.566406 24.988281 15.988281 24.917969 C 14.589844 24.875 13.714844 24.828125 13.363281 24.773438 C 12.765625 24.6875 12.363281 24.542969 12.15625 24.347656 C 11.949219 24.148438 11.847656 23.945312 11.847656 23.734375 C 11.847656 23.484375 11.941406 23.1875 12.136719 22.832031 C 12.332031 22.480469 12.703125 22.070312 13.253906 21.601562 C 14.140625 21.851562 15.007812 21.980469 15.855469 21.980469 C 17.914062 21.980469 19.554688 21.410156 20.777344 20.269531 C 22 19.128906 22.609375 17.757812 22.609375 16.15625 C 22.609375 14.878906 22.320312 13.808594 21.738281 12.945312 L 24.335938 12.945312 Z M 18.40625 19.984375 C 17.796875 20.695312 17.019531 21.050781 16.074219 21.050781 C 15.078125 21.050781 14.257812 20.636719 13.609375 19.816406 C 12.765625 18.730469 12.339844 17.207031 12.339844 15.234375 C 12.339844 13.714844 12.652344 12.589844 13.273438 11.851562 C 13.894531 11.117188 14.667969 10.75 15.589844 10.75 C 16.585938 10.75 17.398438 11.160156 18.035156 11.984375 C 18.894531 13.105469 19.324219 14.65625 19.324219 16.636719 C 19.324219 18.160156 19.019531 19.273438 18.40625 19.984375 Z M 18.40625 19.984375 "/>
</g>
</svg>
