<svg id="svg" version="1.1" xmlns="http://www.w3.org/2000/svg" xmlns:xlink="http://www.w3.org/1999/xlink" width="400" height="300" viewBox="0, 0, 400,300"><g id="svgg"><path id="path0" d="M193.500 5.803 C 188.917 5.955,185.742 6.274,180.565 7.104 C 178.879 7.375,176.870 7.694,176.100 7.815 C 171.981 8.459,159.095 11.651,154.068 13.273 C 142.052 17.148,131.839 22.018,121.622 28.743 C 119.820 29.929,118.198 30.990,118.018 31.100 C 115.622 32.568,107.757 38.676,103.727 42.200 C 90.516 53.751,76.951 71.432,69.970 86.200 C 64.505 97.763,62.011 105.045,58.829 118.739 C 53.723 140.713,53.723 159.487,58.829 181.461 C 62.011 195.155,64.505 202.437,69.970 214.000 C 76.951 228.768,90.516 246.449,103.727 258.000 C 107.757 261.524,115.622 267.632,118.018 269.100 C 118.198 269.210,119.820 270.271,121.622 271.457 C 131.839 278.182,142.052 283.052,154.068 286.927 C 159.094 288.548,171.978 291.740,176.100 292.385 C 176.870 292.506,178.895 292.827,180.600 293.099 C 192.648 295.023,207.552 295.023,219.600 293.099 C 221.305 292.827,223.330 292.506,224.100 292.385 C 228.222 291.740,241.106 288.548,246.132 286.927 C 258.148 283.052,268.361 278.182,278.578 271.457 C 280.380 270.271,282.002 269.210,282.182 269.100 C 284.578 267.632,292.443 261.524,296.473 258.000 C 309.684 246.449,323.249 228.768,330.230 214.000 C 335.695 202.437,338.189 195.155,341.371 181.461 C 346.477 159.487,346.477 140.713,341.371 118.739 C 338.189 105.045,335.695 97.763,330.230 86.200 C 323.249 71.432,309.684 53.751,296.473 42.200 C 292.443 38.676,284.578 32.568,282.182 31.100 C 282.002 30.990,280.380 29.929,278.578 28.743 C 266.351 20.694,252.507 14.587,238.600 11.105 C 232.324 9.533,225.680 8.000,225.147 8.000 C 224.861 8.000,224.013 7.871,223.263 7.714 C 215.633 6.111,204.919 5.423,193.500 5.803 M212.600 20.282 C 294.853 28.039,349.399 109.227,325.383 188.153 C 304.650 256.293,232.911 294.912,163.500 275.299 C 93.842 255.617,53.646 181.623,74.817 112.047 C 90.132 61.714,135.863 24.582,187.800 20.306 C 189.835 20.139,191.905 19.967,192.400 19.925 C 194.845 19.717,209.314 19.972,212.600 20.282 M127.078 95.592 C 126.417 95.866,125.857 96.716,125.725 97.648 C 125.600 98.529,125.781 99.327,127.595 105.900 C 128.564 109.410,129.803 113.935,131.098 118.700 C 132.786 124.908,134.956 132.849,136.400 138.100 C 136.853 139.750,137.616 142.540,138.094 144.300 C 139.910 150.988,141.809 157.935,143.422 163.800 C 143.861 165.395,144.610 168.140,145.086 169.900 C 145.563 171.660,146.422 174.810,146.996 176.900 C 148.088 180.881,149.035 184.350,150.490 189.700 C 150.969 191.460,151.784 194.430,152.300 196.300 C 152.816 198.170,153.450 200.504,153.708 201.487 C 154.637 205.028,153.722 204.794,166.648 204.797 L 177.396 204.800 178.934 204.269 C 182.367 203.083,185.361 199.956,186.660 196.200 C 187.174 194.713,187.407 193.906,189.003 188.100 C 189.456 186.450,189.995 184.515,190.200 183.800 C 190.405 183.085,190.990 180.970,191.499 179.100 C 192.009 177.230,192.549 175.295,192.698 174.800 C 192.848 174.305,193.389 172.370,193.902 170.500 C 194.414 168.630,195.089 166.245,195.403 165.200 C 196.269 162.312,200.200 147.930,200.200 147.648 C 200.200 147.274,200.558 147.350,200.681 147.750 C 200.741 147.942,201.647 151.340,202.695 155.300 C 203.743 159.260,205.503 165.875,206.607 170.000 C 209.782 181.860,212.444 191.852,213.987 197.700 C 216.097 205.694,214.326 204.800,228.053 204.800 C 240.970 204.800,241.248 204.749,244.263 201.827 C 246.984 199.190,247.209 198.646,250.309 187.200 C 250.970 184.759,251.758 181.878,253.372 176.000 C 253.810 174.405,254.575 171.615,255.072 169.800 C 255.570 167.985,256.351 165.150,256.808 163.500 C 257.662 160.417,258.414 157.664,259.786 152.600 C 260.219 151.005,260.947 148.350,261.405 146.700 C 261.864 145.050,262.583 142.440,263.004 140.900 C 263.425 139.360,264.142 136.750,264.597 135.100 C 266.405 128.548,267.052 126.181,267.793 123.400 C 268.218 121.805,268.748 119.870,268.970 119.100 C 269.533 117.149,272.705 105.558,274.114 100.300 C 274.698 98.121,274.615 97.047,273.790 96.123 L 273.233 95.500 263.666 95.500 L 254.100 95.500 252.700 96.067 C 250.118 97.113,248.726 98.163,247.128 100.268 C 245.384 102.567,244.992 103.526,243.401 109.400 C 243.059 110.665,242.563 112.420,242.299 113.300 C 241.792 114.989,239.382 123.577,238.784 125.823 C 238.590 126.551,238.015 128.621,237.505 130.423 C 236.995 132.225,236.364 134.465,236.102 135.400 C 235.840 136.335,235.132 138.855,234.527 141.000 C 233.923 143.145,233.141 145.935,232.789 147.200 C 232.438 148.465,231.756 150.883,231.275 152.573 C 230.794 154.264,230.400 155.816,230.400 156.023 C 230.400 156.549,230.067 156.495,229.948 155.950 C 229.841 155.459,223.657 132.116,222.517 127.900 C 222.131 126.470,220.599 120.671,219.113 115.013 C 215.322 100.579,214.108 98.504,208.010 96.036 L 206.700 95.506 198.100 95.451 C 191.474 95.408,189.390 95.453,189.019 95.648 C 188.013 96.176,187.868 96.556,185.900 103.800 C 185.646 104.735,185.105 106.670,184.698 108.100 C 184.291 109.530,183.748 111.465,183.492 112.400 C 182.859 114.712,182.397 116.367,181.400 119.900 C 180.934 121.550,180.392 123.485,180.196 124.200 C 179.999 124.915,179.332 127.300,178.713 129.500 C 178.093 131.700,177.326 134.445,177.007 135.600 C 176.390 137.839,175.796 139.956,174.791 143.500 C 174.448 144.710,173.914 146.645,173.605 147.800 C 173.295 148.955,172.627 151.334,172.121 153.088 C 171.614 154.841,171.200 156.393,171.200 156.538 C 171.200 157.452,170.789 156.402,170.149 153.850 C 169.466 151.129,168.528 147.544,164.592 132.600 C 162.713 125.462,161.204 119.696,159.308 112.400 C 157.124 103.993,156.566 102.454,154.955 100.384 C 153.444 98.443,151.738 97.099,149.585 96.155 L 148.100 95.503 137.800 95.460 C 132.135 95.436,127.310 95.495,127.078 95.592 " stroke="none" fill="#fbfbfb" fill-rule="evenodd"></path><path id="path1" d="M195.000 19.917 C 115.775 24.233,59.079 92.701,70.804 169.900 C 83.263 251.934,169.938 301.716,247.600 271.443 C 329.977 239.332,357.382 136.874,301.931 68.317 C 276.283 36.607,234.638 17.758,195.000 19.917 M148.636 95.612 C 153.864 97.373,156.441 100.692,158.410 108.200 C 158.857 109.905,159.847 113.685,160.611 116.600 C 161.374 119.515,162.544 123.970,163.211 126.500 C 163.877 129.030,164.905 132.945,165.496 135.200 C 166.086 137.455,167.307 142.090,168.210 145.500 C 169.113 148.910,170.081 152.667,170.360 153.850 C 170.933 156.272,171.034 156.392,171.367 155.050 C 171.497 154.528,171.831 153.290,172.109 152.300 C 172.388 151.310,172.927 149.375,173.308 148.000 C 173.689 146.625,174.216 144.735,174.480 143.800 C 174.744 142.865,175.248 141.065,175.601 139.800 C 175.954 138.535,176.510 136.555,176.837 135.400 C 177.470 133.165,178.165 130.664,178.698 128.700 C 178.878 128.040,179.508 125.790,180.100 123.700 C 180.692 121.610,181.727 117.920,182.401 115.500 C 183.075 113.080,183.841 110.335,184.102 109.400 C 184.364 108.465,185.041 106.035,185.606 104.000 C 187.490 97.217,187.783 96.326,188.309 95.800 L 188.809 95.300 197.755 95.300 L 206.700 95.300 208.140 95.864 C 211.281 97.093,213.928 99.523,215.647 102.755 C 216.516 104.388,216.843 105.485,219.603 116.018 C 221.258 122.333,222.841 128.310,223.121 129.300 C 223.401 130.290,225.064 136.545,226.817 143.200 C 228.571 149.855,230.033 155.386,230.066 155.491 C 230.164 155.796,232.018 149.450,234.330 140.900 C 234.598 139.910,235.180 137.840,235.623 136.300 C 236.066 134.760,236.641 132.735,236.901 131.800 C 237.161 130.865,237.869 128.345,238.474 126.200 C 239.079 124.055,240.261 119.825,241.101 116.800 C 241.940 113.775,242.838 110.580,243.095 109.700 C 243.352 108.820,243.800 107.245,244.089 106.200 C 245.412 101.416,248.047 97.969,251.655 96.302 C 253.972 95.231,254.208 95.210,263.876 95.205 C 273.833 95.199,273.837 95.200,274.368 96.552 C 274.999 98.156,275.096 97.633,272.212 108.100 C 271.303 111.400,270.170 115.540,269.694 117.300 C 269.219 119.060,268.456 121.850,267.998 123.500 C 267.541 125.150,266.775 127.940,266.295 129.700 C 265.816 131.460,264.689 135.555,263.792 138.800 C 262.895 142.045,261.909 145.645,261.602 146.800 C 261.296 147.955,260.620 150.430,260.101 152.300 C 259.582 154.170,258.813 156.960,258.393 158.500 C 257.627 161.308,256.360 165.930,255.077 170.600 C 254.699 171.975,254.086 174.225,253.714 175.600 C 253.343 176.975,252.664 179.450,252.207 181.100 C 251.201 184.733,249.835 189.717,248.808 193.500 C 247.290 199.088,245.371 202.004,242.072 203.736 C 239.562 205.054,240.009 205.016,227.711 204.955 L 216.554 204.900 215.917 204.163 C 215.362 203.521,215.105 202.768,213.940 198.363 C 213.203 195.578,211.662 189.790,210.517 185.500 C 209.371 181.210,207.790 175.270,207.003 172.300 C 206.216 169.330,205.224 165.640,204.799 164.100 C 204.079 161.496,201.029 149.964,200.648 148.408 C 200.462 147.648,200.656 147.024,197.571 158.300 C 196.909 160.720,196.023 163.870,195.603 165.300 C 195.183 166.730,194.510 169.115,194.107 170.600 C 193.704 172.085,193.115 174.200,192.797 175.300 C 192.480 176.400,191.939 178.335,191.595 179.600 C 191.251 180.865,190.715 182.800,190.403 183.900 C 190.091 185.000,189.506 187.115,189.103 188.600 C 186.934 196.598,186.460 197.872,184.893 199.918 C 182.936 202.472,181.343 203.703,178.933 204.523 L 177.530 205.000 166.655 205.000 C 153.352 205.000,154.560 205.355,153.393 201.106 C 153.090 200.003,152.420 197.570,151.904 195.700 C 151.388 193.830,150.568 190.838,150.081 189.050 C 149.595 187.263,148.798 184.338,148.310 182.550 C 147.823 180.763,147.007 177.770,146.497 175.900 C 145.238 171.281,143.907 166.410,143.081 163.400 C 142.704 162.025,141.996 159.415,141.508 157.600 C 141.021 155.785,139.803 151.330,138.802 147.700 C 137.802 144.070,136.634 139.795,136.208 138.200 C 135.781 136.605,134.561 132.150,133.497 128.300 C 132.432 124.450,131.216 119.995,130.794 118.400 C 130.373 116.805,129.245 112.665,128.288 109.200 C 125.084 97.591,125.196 98.169,125.830 96.556 C 126.368 95.187,126.195 95.207,137.356 95.203 C 146.987 95.200,147.464 95.217,148.636 95.612 " stroke="none" fill="#e49c04" fill-rule="evenodd"></path><path id="path2" d="M132.564 95.350 C 135.349 95.381,139.849 95.381,142.564 95.350 C 145.279 95.318,143.000 95.293,137.500 95.293 C 132.000 95.293,129.779 95.318,132.564 95.350 M193.663 95.350 C 195.953 95.382,199.643 95.382,201.863 95.350 C 204.084 95.318,202.210 95.291,197.700 95.291 C 193.190 95.291,191.374 95.318,193.663 95.350 M259.264 95.350 C 261.774 95.382,265.824 95.382,268.264 95.350 C 270.704 95.318,268.650 95.292,263.700 95.292 C 258.750 95.292,256.754 95.318,259.264 95.350 M161.236 204.950 C 164.171 204.981,169.031 204.981,172.036 204.950 C 175.041 204.919,172.640 204.893,166.700 204.893 C 160.760 204.893,158.301 204.919,161.236 204.950 M222.636 204.950 C 225.571 204.981,230.431 204.981,233.436 204.950 C 236.441 204.919,234.040 204.893,228.100 204.893 C 222.160 204.893,219.701 204.919,222.636 204.950 " stroke="none" fill="#eec25e" fill-rule="evenodd"></path><path id="path3" d="M107.297 58.050 L 105.100 60.300 107.350 58.103 C 109.440 56.063,109.691 55.800,109.547 55.800 C 109.517 55.800,108.505 56.813,107.297 58.050 M292.700 58.000 C 293.906 59.210,294.938 60.200,294.993 60.200 C 295.048 60.200,294.106 59.210,292.900 58.000 C 291.694 56.790,290.662 55.800,290.607 55.800 C 290.552 55.800,291.494 56.790,292.700 58.000 M152.600 97.863 C 152.600 97.897,152.893 98.190,153.250 98.513 L 153.900 99.100 153.313 98.450 C 152.765 97.844,152.600 97.708,152.600 97.863 M244.400 201.700 C 243.914 202.195,243.562 202.600,243.617 202.600 C 243.672 202.600,244.114 202.195,244.600 201.700 C 245.086 201.205,245.438 200.800,245.383 200.800 C 245.328 200.800,244.886 201.205,244.400 201.700 M107.300 242.200 C 108.506 243.410,109.538 244.400,109.593 244.400 C 109.648 244.400,108.706 243.410,107.500 242.200 C 106.294 240.990,105.262 240.000,105.207 240.000 C 105.152 240.000,106.094 240.990,107.300 242.200 M292.697 242.250 L 290.500 244.500 292.750 242.303 C 293.988 241.095,295.000 240.083,295.000 240.053 C 295.000 239.909,294.737 240.160,292.697 242.250 " stroke="none" fill="#f4dba0" fill-rule="evenodd"></path><path id="path4" d="M195.250 19.938 C 195.442 19.988,195.758 19.988,195.950 19.938 C 196.143 19.888,195.985 19.846,195.600 19.846 C 195.215 19.846,195.058 19.888,195.250 19.938 M204.250 19.938 C 204.442 19.988,204.758 19.988,204.950 19.938 C 205.143 19.888,204.985 19.846,204.600 19.846 C 204.215 19.846,204.058 19.888,204.250 19.938 M109.491 56.050 L 108.700 56.900 109.550 56.109 C 110.340 55.374,110.492 55.200,110.341 55.200 C 110.308 55.200,109.925 55.583,109.491 56.050 M290.500 56.000 C 290.930 56.440,291.326 56.800,291.381 56.800 C 291.436 56.800,291.130 56.440,290.700 56.000 C 290.270 55.560,289.874 55.200,289.819 55.200 C 289.764 55.200,290.070 55.560,290.500 56.000 M104.891 60.650 L 104.100 61.500 104.950 60.709 C 105.740 59.974,105.892 59.800,105.741 59.800 C 105.708 59.800,105.325 60.183,104.891 60.650 M295.100 60.600 C 295.530 61.040,295.926 61.400,295.981 61.400 C 296.036 61.400,295.730 61.040,295.300 60.600 C 294.870 60.160,294.474 59.800,294.419 59.800 C 294.364 59.800,294.670 60.160,295.100 60.600 M69.246 145.600 C 69.246 145.985,69.288 146.143,69.338 145.950 C 69.388 145.758,69.388 145.442,69.338 145.250 C 69.288 145.058,69.246 145.215,69.246 145.600 M330.846 145.600 C 330.846 145.985,330.888 146.143,330.938 145.950 C 330.988 145.758,330.988 145.442,330.938 145.250 C 330.888 145.058,330.846 145.215,330.846 145.600 M69.246 154.600 C 69.246 154.985,69.288 155.143,69.338 154.950 C 69.388 154.758,69.388 154.442,69.338 154.250 C 69.288 154.058,69.246 154.215,69.246 154.600 M330.846 154.600 C 330.846 154.985,330.888 155.143,330.938 154.950 C 330.988 154.758,330.988 154.442,330.938 154.250 C 330.888 154.058,330.846 154.215,330.846 154.600 M244.589 201.750 L 243.900 202.500 244.650 201.811 C 245.348 201.169,245.492 201.000,245.339 201.000 C 245.306 201.000,244.968 201.338,244.589 201.750 M104.900 239.600 C 105.330 240.040,105.726 240.400,105.781 240.400 C 105.836 240.400,105.530 240.040,105.100 239.600 C 104.670 239.160,104.274 238.800,104.219 238.800 C 104.164 238.800,104.470 239.160,104.900 239.600 M295.091 239.650 L 294.300 240.500 295.150 239.709 C 295.940 238.974,296.092 238.800,295.941 238.800 C 295.908 238.800,295.525 239.183,295.091 239.650 M109.500 244.200 C 109.930 244.640,110.326 245.000,110.381 245.000 C 110.436 245.000,110.130 244.640,109.700 244.200 C 109.270 243.760,108.874 243.400,108.819 243.400 C 108.764 243.400,109.070 243.760,109.500 244.200 M290.491 244.250 L 289.700 245.100 290.550 244.309 C 291.340 243.574,291.492 243.400,291.341 243.400 C 291.308 243.400,290.925 243.782,290.491 244.250 M195.250 280.338 C 195.442 280.388,195.758 280.388,195.950 280.338 C 196.143 280.288,195.985 280.246,195.600 280.246 C 195.215 280.246,195.058 280.288,195.250 280.338 M204.250 280.338 C 204.442 280.388,204.758 280.388,204.950 280.338 C 205.143 280.288,204.985 280.246,204.600 280.246 C 204.215 280.246,204.058 280.288,204.250 280.338 " stroke="none" fill="#ecb435" fill-rule="evenodd"></path></g></svg>