<?xml version="1.0" encoding="utf-8"?>
<!-- Generator: Adobe Illustrator 25.2.3, SVG Export Plug-In . SVG Version: 6.00 Build 0)  -->
<svg version="1.1" id="Layer_1" xmlns="http://www.w3.org/2000/svg" xmlns:xlink="http://www.w3.org/1999/xlink" x="0px" y="0px"
	 viewBox="0 0 1365.3 1365.3" style="enable-background:new 0 0 1365.3 1365.3;" xml:space="preserve">
<style type="text/css">
	.st0{fill:#FFFFFF;}
</style>
<path d="M636.7,369.6c-0.4,0.9-0.5,30.8-0.4,66.4l0.4,64.7l22.7,0.4c88.4,1.6,132.4-20.4,132.7-66.4c0-15.9-5.9-30.1-16.8-40.9
	c-12.9-12.5-33.3-20.3-63.2-23.7C690.5,367.5,637.6,367.2,636.7,369.6z M636.7,569.6c-0.4,0.9-0.5,33.9-0.4,73.1l0.4,71.3H674
	c39.1-0.1,56.8-1.5,77.3-6.3c48.1-11.1,71.2-32.5,71.3-66.4c0-41.5-32.9-65.3-99.2-71.9C702.3,567.3,637.5,567.5,636.7,569.6
	L636.7,569.6z"/>
<g>
	<path d="M665.3,737.1c35.1,0,64-13.2,86.7-39.5c22.6-26.3,33.9-67.7,33.9-124.3c0-73.6-16-131.2-47.9-172.8
		c-23.5-30.6-53.8-45.8-90.8-45.8c-34.2,0-62.9,13.7-85.9,41c-23.1,27.3-34.7,69.2-34.7,125.6c0,73,15.7,129.7,47.2,170
		C597.9,721.8,628.3,737.1,665.3,737.1z"/>
	<path d="M430.9,932.2c-10-11.3-15-24.2-15-38.6c0-16.3,6.6-35.3,19.8-57.1c13.2-21.9,43.6-52.7,91.4-92.7
		c-38.9-19-68.7-45.5-89.6-79.6c-20.9-34.1-31.3-71.8-31.3-113.1c0-63.2,23.7-117.4,71.2-162.9c47.4-45.4,108.4-68.2,182.6-68.2
		c58.8,0,109.9,13.8,153.5,41.4c38.3-37.5,66.8-69.5,85.3-95.8c25.1-35.8,37.8-68.5,37.8-98.1c0-22.6-6.9-41.1-20.7-55.7
		C902.1,97.4,885.5,90,866.3,90c-17.5,0-33.2,5.1-47.2,15.4c-14,10.3-24.2,25.3-30.8,45.1h-9.7c4.4-32.5,15.7-57.4,33.8-74.8
		c18.1-17.3,40.7-26,67.9-26c7.3,0,14.3,0.6,21,1.8C842.6,22.2,777.2,4.2,708,0.7c0,0,0,0,0,0c-8.3-0.4-16.7-0.6-25.2-0.6h0
		c0,0-0.1,0-0.1,0c-265.2,0-480.8,211.3-488.2,474.7c-0.5,5-1,9.9-1.4,14.9c-2.5,34.1,3.5,74.1,15.7,117.8
		c6.5,26,15.1,51.2,25.6,75.4c43.3,110.5,114.7,235.7,187.9,350.2c11.5-12.2,31.3-33,59.6-62.3C457.9,956.4,440.9,943.5,430.9,932.2
		z"/>
	<path d="M903.9,1010.5c-24.1-10.1-71.8-16-143.2-17.9c-104.3-2.8-184.5-8.2-240.6-16.2c-21.9,23.5-38.5,45.4-49.7,65.7
		c-8,14.6-13.1,28.4-15.4,41.3c72,109,142.1,203.9,185.1,260.5c21.5,28.3,64.1,28.4,85.7,0.1c48.2-63.2,130.3-174.5,211.1-300.2
		C932.1,1029,921.2,1017.9,903.9,1010.5z"/>
	<path d="M1170.8,463.9C1163,307.8,1082,171,961.4,87.2c13.5,16.5,20.4,35.2,20.4,56.3c0,18.1-4.3,36.1-12.6,54.2
		C956,226.1,935,256.2,906,287.9c-42.6,46.6-69.6,75.1-80.8,85.5l0.6,0.7h91.7c19,0,32.2-0.6,39.8-2.1c7.5-1.3,14.4-4.3,20.6-8.5
		c6.2-4.3,11.5-10.3,16-18.2h9.7l-31.4,90.2h-96.5c21.6,32,32.5,71.7,32.5,119.1c0,59.6-22.6,110.5-68,152.8
		c-45.4,42.3-106.2,63.5-182.6,63.5c-31.4,0-63.6-4.7-96.5-14.1c-20.4,17.5-34.2,32.8-41.4,45.8c-7.3,13.1-10.9,24.2-10.9,33.3
		c0,7.8,3.8,15.4,11.5,22.8c7.8,7.3,22.6,12.6,45,15.9c12.9,2.1,45.4,4,97.4,5.4c95.6,2.6,157.5,6.3,185.8,10.9
		c43,6,77.6,22,103.3,47.9c11.6,11.7,20.4,24.7,26.8,38.7c56-91.6,108.3-187.5,144.5-276c19.4-39.9,33.3-82.9,41.2-128
		c6.4-30.2,9.6-58.3,8.5-83.8C1172.2,481.1,1171.6,472.5,1170.8,463.9z"/>
	<path class="st0" d="M848.2,890.9c-28.4-4.6-90.2-8.2-185.8-10.9c-52-1.5-84.5-3.4-97.4-5.4c-22.3-3.2-37.2-8.5-45-15.9
		c-7.6-7.3-11.5-15-11.5-22.8c0-9.1,3.5-20.3,10.9-33.3c7.2-13.1,21-28.4,41.4-45.8c32.9,9.4,65.1,14.1,96.5,14.1
		c76.4,0,137.2-21.2,182.6-63.5c45.4-42.3,68-93.1,68-152.8c0-47.4-10.9-87.1-32.5-119.1h96.5l31.4-90.2h-9.7
		c-4.6,7.9-9.8,14-16,18.2c-6.2,4.3-13.1,7.2-20.6,8.5c-7.6,1.5-20.9,2.1-39.8,2.1h-91.7l-0.6-0.7c11.2-10.4,38.2-38.9,80.8-85.5
		c29.1-31.7,50.1-61.8,63.2-90.2c8.4-18.1,12.6-36.1,12.6-54.2c0-21.1-6.9-39.8-20.4-56.3c-19.1-13.3-39.2-25.2-60.1-35.6
		c-6.7-1.2-13.7-1.8-21-1.8c-27.2,0-49.8,8.7-67.9,26c-18.1,17.3-29.4,42.3-33.8,74.8h9.7c6.6-19.8,16.9-34.8,30.8-45.1
		c14-10.3,29.7-15.4,47.2-15.4c19.2,0,35.8,7.3,49.7,21.7c13.8,14.5,20.7,33.1,20.7,55.7c0,29.7-12.6,62.3-37.8,98.1
		c-18.5,26.3-47,58.3-85.3,95.8c-43.6-27.6-94.8-41.4-153.5-41.4c-74.2,0-135.1,22.8-182.6,68.2c-47.6,45.5-71.2,99.7-71.2,162.9
		c0,41.3,10.4,79,31.3,113.1c20.9,34.1,50.7,60.7,89.6,79.6c-47.7,40-78.2,70.8-91.4,92.7c-13.2,21.9-19.8,40.8-19.8,57.1
		c0,14.4,5,27.3,15,38.6c10,11.3,27,24.2,51.1,38.6c-28.3,29.4-48.2,50.1-59.6,62.3c10.9,17,21.8,33.8,32.6,50.2
		c2.2-12.9,7.3-26.7,15.4-41.3c11.2-20.3,27.8-42.2,49.7-65.7c56.1,7.9,136.3,13.4,240.6,16.2c71.4,1.9,119.1,7.8,143.2,17.9
		c17.3,7.4,28.2,18.5,32.9,33.2c13.9-21.7,27.8-43.8,41.5-66.2c-6.4-14.1-15.2-27-26.8-38.7C925.8,913,891.3,896.9,848.2,890.9z
		 M526.7,521.3c0-56.4,11.6-98.3,34.7-125.6c23.1-27.3,51.7-41,85.9-41c37,0,67.3,15.3,90.8,45.8c31.9,41.6,47.9,99.2,47.9,172.8
		c0,56.6-11.3,98-33.9,124.3c-22.6,26.3-51.6,39.5-86.7,39.5c-37,0-67.4-15.3-91.5-45.8C542.4,651,526.7,594.3,526.7,521.3z"/>
</g>
</svg>
