<?xml version="1.0" encoding="UTF-8"?>
<svg xmlns="http://www.w3.org/2000/svg" xmlns:xlink="http://www.w3.org/1999/xlink" width="32pt" height="32pt" viewBox="0 0 32 32" version="1.1">
<g id="surface1">
<path style=" stroke:none;fill-rule:nonzero;fill:rgb(0%,0%,0%);fill-opacity:1;" d="M 0.625 2.664062 C -0.0117188 2.988281 0 2.550781 0 16.164062 L 0 28.898438 L 0.363281 29.261719 L 0.738281 29.625 L 16.050781 29.601562 L 31.363281 29.5625 L 31.648438 29.273438 L 31.9375 28.988281 L 31.976562 16.273438 C 32 6.875 31.960938 3.476562 31.863281 3.210938 C 31.550781 2.460938 32.398438 2.5 15.976562 2.5 C 4.164062 2.5 0.875 2.539062 0.625 2.664062 Z M 20.488281 6.773438 C 20.125 7.351562 19.613281 8.164062 19.351562 8.585938 L 18.863281 9.363281 L 15.273438 9.398438 C 11.863281 9.4375 11.648438 9.449219 10.976562 9.726562 C 9.539062 10.300781 8.539062 11.5625 8.039062 13.398438 C 7.761719 14.398438 7.726562 17.835938 7.988281 18.875 C 8.386719 20.460938 9.273438 21.625 10.539062 22.199219 L 11.3125 22.5625 L 14.289062 22.601562 L 17.25 22.648438 L 17.25 17.886719 L 15.476562 17.851562 L 13.699219 17.8125 L 12.960938 16.5625 C 12.5625 15.875 12.085938 15.074219 11.914062 14.773438 L 11.601562 14.25 L 21.125 14.25 L 21.125 26.375 L 16.726562 26.375 C 14.300781 26.375 11.8125 26.3125 11.210938 26.25 C 7.625 25.875 5.210938 23.835938 4.261719 20.375 C 3.636719 18.164062 3.636719 14.585938 4.25 12.164062 C 5.050781 9.023438 7.039062 6.949219 10.039062 6.175781 C 11.363281 5.835938 12.199219 5.789062 16.726562 5.761719 L 21.125 5.75 Z M 26.300781 18.023438 C 26.585938 18.113281 27.039062 18.398438 27.324219 18.699219 C 28.5625 19.9375 28.289062 21.5625 26.4375 23.75 L 25.960938 24.3125 L 27.113281 24.351562 L 28.25 24.386719 L 28.25 26.375 L 25.125 26.375 C 21.375 26.375 21.476562 26.449219 22.988281 24.699219 C 24.425781 23.023438 25.574219 21.460938 25.75 20.949219 C 25.875 20.5625 25.863281 20.4375 25.699219 20.1875 C 25.351562 19.648438 24.375 19.898438 24.375 20.523438 C 24.375 20.726562 24.261719 20.75 23.238281 20.75 L 22.101562 20.75 L 22.1875 20.210938 C 22.363281 19.1875 22.914062 18.4375 23.75 18.074219 C 24.289062 17.835938 25.601562 17.824219 26.300781 18.023438 Z M 26.300781 18.023438 "/>
</g>
</svg>
