<?xml version="1.0" standalone="no"?>
<!DOCTYPE svg PUBLIC "-//W3C//DTD SVG 20010904//EN"
 "http://www.w3.org/TR/2001/REC-SVG-20010904/DTD/svg10.dtd">
<svg version="1.0" xmlns="http://www.w3.org/2000/svg"
 width="1024.000000pt" height="1024.000000pt" viewBox="0 0 1024.000000 1024.000000"
 preserveAspectRatio="xMidYMid meet">
<metadata>
Created by potrace 1.14, written by Peter Selinger 2001-2017
</metadata>
<g transform="translate(0.000000,1024.000000) scale(0.100000,-0.100000)"
fill="#000000" stroke="none">
<path d="M4888 10235 c-1 -1 -41 -5 -88 -9 -88 -7 -140 -12 -200 -21 -126 -19
-158 -25 -180 -30 -14 -3 -40 -7 -59 -10 -18 -2 -41 -7 -50 -9 -9 -3 -27 -7
-41 -10 -121 -23 -498 -142 -606 -192 -29 -13 -55 -24 -59 -24 -14 0 -281
-133 -287 -144 -4 -6 -8 -8 -8 -3 0 4 -17 -3 -37 -16 -21 -13 -45 -27 -53 -30
-8 -4 -31 -17 -50 -29 -19 -11 -44 -26 -55 -32 -67 -37 -380 -258 -405 -286
-3 -3 -32 -27 -65 -55 -163 -135 -362 -337 -489 -495 -20 -25 -42 -52 -49 -59
-6 -8 -35 -47 -64 -85 -29 -39 -57 -76 -62 -83 -22 -25 -141 -214 -198 -313
-68 -119 -182 -350 -209 -425 -9 -27 -21 -54 -24 -60 -4 -5 -13 -28 -20 -50
-7 -22 -16 -44 -20 -50 -5 -5 -8 -13 -8 -18 0 -4 -12 -43 -26 -85 -15 -43 -28
-87 -31 -98 -2 -10 -16 -57 -29 -104 -14 -47 -27 -96 -29 -110 -3 -14 -10 -43
-15 -65 -6 -22 -14 -53 -16 -70 -3 -16 -8 -41 -11 -55 -3 -14 -8 -45 -11 -70
-3 -25 -8 -47 -9 -50 -4 -6 -18 -134 -19 -167 -1 -13 -3 -23 -6 -23 -14 0 -20
-649 -7 -780 13 -133 33 -297 43 -341 13 -62 16 -75 19 -94 2 -11 13 -56 24
-100 12 -44 23 -88 25 -97 3 -9 23 -70 45 -136 74 -218 165 -416 350 -757 9
-16 18 -32 21 -35 3 -3 11 -16 18 -29 8 -13 23 -40 34 -59 11 -20 35 -59 54
-89 18 -29 31 -53 28 -53 -3 0 1 -7 10 -15 12 -13 27 -36 91 -144 6 -9 20 -31
33 -48 12 -17 22 -36 22 -42 0 -6 5 -11 10 -11 6 0 10 -5 10 -10 0 -6 5 -16
10 -23 6 -7 88 -129 183 -272 161 -242 251 -376 270 -400 29 -39 58 -83 63
-97 4 -10 10 -18 15 -18 5 0 17 -16 26 -35 9 -19 20 -35 25 -35 4 0 8 -6 8
-14 0 -8 4 -16 8 -18 5 -1 44 -55 87 -118 44 -63 85 -121 92 -128 7 -7 13 -19
13 -27 0 -7 4 -15 8 -17 5 -1 28 -32 53 -68 24 -36 47 -67 50 -70 9 -8 93
-130 104 -151 5 -11 13 -19 17 -19 5 0 8 -6 8 -14 0 -8 3 -16 8 -18 4 -1 55
-70 112 -153 57 -82 108 -151 112 -153 5 -2 8 -7 8 -12 0 -7 141 -212 168
-246 5 -5 22 -30 38 -55 16 -24 31 -46 34 -49 6 -6 27 -35 122 -172 37 -54
100 -144 140 -200 39 -57 109 -157 155 -223 45 -66 89 -129 97 -140 14 -19 77
-109 241 -345 39 -56 75 -109 80 -117 6 -9 15 -24 22 -32 7 -9 52 -74 101
-146 121 -176 168 -235 216 -272 62 -46 129 -79 181 -90 39 -8 199 -12 210 -5
5 4 21 8 34 10 34 4 117 46 166 84 42 32 121 126 153 182 9 16 27 40 40 54 12
14 22 31 22 38 0 8 3 14 8 14 4 0 20 21 37 48 16 26 32 49 35 52 3 3 19 25 35
50 16 25 33 47 36 50 4 3 23 30 43 60 20 30 52 80 72 110 20 30 41 57 45 58 5
2 9 8 9 13 0 5 16 30 35 56 77 104 246 348 263 379 7 13 17 24 23 24 5 0 9 4
9 10 0 9 88 140 101 150 3 3 12 15 18 28 7 13 19 31 26 40 8 9 47 64 87 122
87 124 121 172 214 303 38 54 74 106 79 115 6 10 28 42 50 72 22 30 49 69 60
85 10 17 23 35 29 42 6 6 36 48 66 92 30 45 71 103 90 130 19 27 41 57 48 67
14 22 107 154 119 170 4 5 13 17 18 26 19 30 98 143 104 148 3 3 11 13 16 22
16 29 105 158 162 235 29 40 53 77 53 81 0 5 9 17 20 27 11 10 20 24 20 32 0
7 4 13 8 13 4 0 21 22 37 50 17 27 33 50 38 50 4 0 7 7 7 15 0 7 8 19 18 24 9
6 13 11 9 11 -4 0 10 24 31 53 21 28 47 67 57 85 11 17 23 32 27 32 4 0 8 7 8
15 0 8 5 15 10 15 6 0 10 4 10 10 0 5 33 58 73 118 39 60 77 116 82 125 23 36
206 323 217 338 6 10 11 21 11 25 1 5 9 18 19 28 10 11 18 26 18 33 0 7 5 13
10 13 6 0 10 4 10 10 0 5 18 39 39 74 22 35 37 67 34 70 -4 3 -1 6 5 6 6 0 14
10 18 22 3 12 11 26 16 32 20 22 172 329 231 466 21 48 59 143 62 155 1 6 5
17 8 25 16 37 69 208 74 235 3 17 9 38 14 48 5 9 8 17 5 17 -3 0 0 15 5 33 6
17 12 43 15 57 2 14 9 48 14 75 17 87 41 266 47 360 14 200 7 708 -12 815 -2
14 -6 45 -9 70 -10 84 -23 163 -42 250 -3 14 -7 39 -10 55 -3 17 -11 50 -18
75 -8 25 -14 48 -15 53 0 4 -1 8 -2 10 0 1 -3 13 -5 27 -5 30 -62 217 -74 245
-5 11 -14 37 -20 58 -7 22 -18 51 -26 65 -8 15 -14 32 -14 37 0 13 -61 158
-100 239 -17 33 -30 66 -30 73 0 6 -3 13 -7 15 -5 2 -19 26 -33 53 -68 137
-278 474 -302 483 -4 2 -8 8 -8 13 0 9 -132 181 -165 215 -5 6 -30 35 -55 64
-133 156 -378 382 -576 532 -89 68 -310 216 -334 223 -11 3 -20 11 -20 16 0 5
-3 8 -7 7 -5 -1 -39 16 -78 39 -38 22 -89 49 -112 59 -24 10 -43 22 -43 26 0
5 -6 8 -12 8 -7 0 -55 20 -106 45 -51 25 -97 45 -103 45 -5 0 -17 4 -27 9 -61
31 -311 122 -337 122 -2 0 -23 6 -46 14 -23 9 -51 17 -63 19 -12 3 -68 17
-126 31 -58 15 -118 29 -135 31 -16 3 -50 9 -75 14 -25 5 -67 12 -95 16 -27 4
-57 8 -65 9 -8 2 -46 6 -85 10 -38 4 -83 9 -100 12 -33 5 -561 13 -567 8z"/>
</g>
</svg>
